<?xml version="1.0" standalone="no"?>
<!DOCTYPE svg PUBLIC "-//W3C//DTD SVG 1.1//EN" "http://www.w3.org/Graphics/SVG/1.1/DTD/svg11.dtd" >
<svg xmlns="http://www.w3.org/2000/svg">
<metadata>Generated by IcoMoon</metadata>
<defs>
<font id="eventa-icons" horiz-adv-x="1024">
<font-face units-per-em="1024" ascent="960" descent="-64" />
<missing-glyph horiz-adv-x="1024" />
<glyph unicode="&#x20;" horiz-adv-x="512" d="" />
<glyph unicode="&#xe900;" glyph-name="list-plus" d="M270.629 492.444h318.171c30.281 0 32.914-24.635 32.914-55.111s-2.633-55.111-32.914-55.111h-318.171c-30.281 0-32.914 24.635-32.914 55.111s2.633 55.111 32.914 55.111v0zM485.114 216.889c30.281 0 32.914-24.635 32.914-55.111s-2.633-55.111-32.914-55.111h-324.2c-30.281 0-32.914 24.635-32.914 55.111s2.633 55.111 32.914 55.111h324.2zM588.8 657.778h-427.886c-30.281 0-32.914 24.635-32.914 55.111s2.633 55.111 32.914 55.111h427.886c30.281 0 32.914-24.635 32.914-55.111s-2.633-55.111-32.914-55.111v0zM764.343 492.444h98.743c30.281 0 32.914-24.635 32.914-55.111s-2.633-55.111-32.914-55.111h-98.743c-30.281 0-32.914 24.635-32.914 55.111s2.633 55.111 32.914 55.111v0zM764.343 768h98.743c30.281 0 32.914-24.635 32.914-55.111s-2.633-55.111-32.914-55.111h-98.743c-30.281 0-32.914 24.635-32.914 55.111s2.633 55.111 32.914 55.111zM594.449 126.455h135.035v-135.035c0-16.945 13.721-18.449 30.697-18.449s30.697 1.504 30.697 18.449v135.035h135.035c16.945 0 18.449 13.721 18.449 30.697s-1.504 30.697-18.449 30.697h-135.035v135.035c0 16.975-13.721 18.449-30.697 18.449s-30.697-1.473-30.697-18.449v-135.035h-135.035c-16.975 0-18.449-13.721-18.449-30.697s1.473-30.697 18.449-30.697z" />
<glyph unicode="&#xe901;" glyph-name="list-reorder" d="M270.629 492.444h318.171c30.281 0 32.914-24.635 32.914-55.111s-2.633-55.111-32.914-55.111h-318.171c-30.281 0-32.914 24.635-32.914 55.111s2.633 55.111 32.914 55.111v0zM160.914 216.889h427.886c30.281 0 32.914-24.635 32.914-55.111s-2.633-55.111-32.914-55.111h-427.886c-30.281 0-32.914 24.635-32.914 55.111s2.633 55.111 32.914 55.111v0zM588.8 657.778h-427.886c-30.281 0-32.914 24.635-32.914 55.111s2.633 55.111 32.914 55.111h427.886c30.281 0 32.914-24.635 32.914-55.111s-2.633-55.111-32.914-55.111zM748.836 193.055h-88.524l132.786-143.909 132.786 143.909h-88.524v522.849h88.524l-132.786 143.909-132.786-143.909h88.524v-522.849z" />
<glyph unicode="&#xe902;" glyph-name="list" d="M270.629 492.444h318.171c30.281 0 32.914-24.635 32.914-55.111s-2.633-55.111-32.914-55.111h-318.171c-30.281 0-32.914 24.635-32.914 55.111s2.633 55.111 32.914 55.111v0zM160.914 216.889h427.886c30.281 0 32.914-24.635 32.914-55.111s-2.633-55.111-32.914-55.111h-427.886c-30.281 0-32.914 24.635-32.914 55.111s2.633 55.111 32.914 55.111v0zM588.8 657.778h-427.886c-30.281 0-32.914 24.635-32.914 55.111s2.633 55.111 32.914 55.111h427.886c30.281 0 32.914-24.635 32.914-55.111s-2.633-55.111-32.914-55.111v0zM764.343 492.444h98.743c30.281 0 32.914-24.635 32.914-55.111s-2.633-55.111-32.914-55.111h-98.743c-30.281 0-32.914 24.635-32.914 55.111s2.633 55.111 32.914 55.111v0zM764.343 216.889h98.743c30.281 0 32.914-24.635 32.914-55.111s-2.633-55.111-32.914-55.111h-98.743c-30.281 0-32.914 24.635-32.914 55.111s2.633 55.111 32.914 55.111v0zM764.343 768h98.743c30.281 0 32.914-24.635 32.914-55.111s-2.633-55.111-32.914-55.111h-98.743c-30.281 0-32.914 24.635-32.914 55.111s2.633 55.111 32.914 55.111v0z" />
<glyph unicode="&#xe903;" glyph-name="location" d="M515.827 832c-131.744 0-238.494-107.059-238.494-239.67 0-229.295 238.494-528.33 238.494-528.33s238.494 299.083 238.494 528.33c0 132.563-106.75 239.67-238.494 239.67v0zM515.827 459.719c-71.167 0-128.787 58.068-128.787 129.681s57.62 129.681 128.787 129.681c71.071 0 128.739-58.068 128.739-129.681s-57.668-129.681-128.739-129.681v0z" />
<glyph unicode="&#xe904;" glyph-name="mobile-phone" d="M628.065 779.301h-1.37v76.695c0 22.070-18.384 40.005-41.031 40.005-22.674 0-41.034-17.934-41.034-40.005v-76.696h-148.695c-53.723 0-97.268-42.479-97.268-94.807v-504.324c0-52.349 43.545-94.835 97.268-94.835h232.131c53.723 0 97.268 42.485 97.268 94.835v504.326c0.002 52.328-43.545 94.807-97.268 94.807v0zM484.089 186.976c0-8.378-7.012-15.211-15.601-15.211h-61.831c-8.593 0-15.576 6.833-15.576 15.211v60.284c0 8.378 6.983 15.183 15.576 15.183h61.831c8.59 0 15.601-6.805 15.601-15.183v-60.284zM484.089 323.017c0-8.378-7.012-15.193-15.601-15.193h-61.831c-8.593 0-15.576 6.815-15.576 15.193v60.275c0 8.408 6.983 15.221 15.576 15.221h61.831c8.59 0 15.601-6.815 15.601-15.221v-60.275zM632.973 186.976c0-8.378-7.012-15.211-15.605-15.211h-61.821c-8.593 0-15.605 6.833-15.605 15.211v60.284c0 8.378 7.012 15.183 15.605 15.183h61.821c8.593 0 15.605-6.805 15.605-15.183v-60.284zM632.973 323.017c0-8.378-7.012-15.193-15.605-15.193h-61.821c-8.593 0-15.605 6.815-15.605 15.193v60.275c0 8.408 7.012 15.221 15.605 15.221h61.821c8.593 0 15.605-6.815 15.605-15.221v-60.275zM660.89 502.117c0-16.804-14.001-30.455-31.247-30.455h-235.233c-17.276 0-31.27 13.651-31.27 30.455v173.361c0 16.814 13.995 30.455 31.27 30.455h235.233c17.245 0 31.247-13.641 31.247-30.455v-173.361z" />
<glyph unicode="&#xe905;" glyph-name="open-tip" d="M256 832l22.488-375.424 192.158-240.546 208.226 120.956-110.966 287.71-311.907 207.305zM451.318 491.622c-21.678-12.591-49.387-5.116-61.901 16.687-12.514 21.811-5.089 49.694 16.59 62.281 21.67 12.595 49.387 5.12 61.897-16.687s5.089-49.69-16.585-62.281v0zM530.827 64l-56.253 98.027 248.814 144.538 56.249-98.031-248.81-144.533z" />
<glyph unicode="&#xe906;" glyph-name="open" d="M804.267 725.333h-563.2c-38.72 0-70.4-31.2-70.4-69.333v-416c0-38.133 31.68-69.333 70.4-69.333h563.2c38.72 0 70.4 31.2 70.4 69.333v416c0 38.133-31.68 69.333-70.4 69.333v0zM329.067 664.667c14.573 0 26.4-11.648 26.4-26s-11.827-26-26.4-26c-14.573 0-26.4 11.648-26.4 26s11.827 26 26.4 26v0zM232.267 638.667c0 14.352 11.827 26 26.4 26s26.4-11.648 26.4-26c0-14.352-11.827-26-26.4-26s-26.4 11.648-26.4 26v0zM804.267 240h-563.2v312h563.2v-312zM804.267 621.333h-422.4v34.667h423.069l-0.669-34.667z" />
<glyph unicode="&#xe907;" glyph-name="person-check" d="M599.869 85.333h-429.202v36.652c0 73.305 80.832 115.638 159.235 149.285 78.145 33.5 103.175 61.759 103.175 122.199 0 36.286-23.889 24.447-34.343 90.934-4.343 27.599-25.472 0.44-29.484 63.372 0 25.070 11.521 31.301 11.521 31.301s-5.816 37.165-8.172 65.718c-1.84 23.347 8.208 67.22 45.606 94.929 43.913 31.594 63.090 74.551 145.542 70.702-37.692-19.902-29.41-39.731-17.153-52.193 70.011-19.609 87.053-83.531 84.66-113.475-2.319-28.552-8.135-65.718-8.135-65.718s11.558-6.231 11.558-31.301c-4.086-62.932-25.177-35.773-29.558-63.372-10.491-66.487-34.306-54.649-34.306-90.934 0-60.476 24.956-88.698 103.102-122.199 22.78-9.761 45.765-20.257 66.914-32.034l-47.076-11.315c-92.698 92.698-212.94-23.759-118.35-118.35l24.463-24.201zM601.702 147.538c-39.309 39.309 10.66 87.705 49.183 49.183l66.508-66.508 148.529 148.529c12.389 12.389 33.515 12.288 46.094-0.29 13.758-13.758 14.252-35.277 1.863-47.666l-174.81-174.81c-13.516-13.516-33.908-11.895-47.666 1.863l-89.7 89.7z" />
<glyph unicode="&#xe908;" glyph-name="person-plus" d="M532.757 85.333h-362.090v36.652c0 73.305 80.832 115.638 159.235 149.285 78.145 33.5 103.175 61.759 103.175 122.199 0 36.286-23.889 24.447-34.343 90.934-4.343 27.599-25.472 0.44-29.484 63.372 0 25.070 11.521 31.301 11.521 31.301s-5.816 37.165-8.172 65.718c-1.84 23.347 8.208 67.22 45.606 94.929 43.913 31.594 63.090 74.551 145.542 70.702-37.692-19.902-29.41-39.731-17.153-52.193 70.011-19.609 87.053-83.531 84.66-113.475-2.319-28.552-8.135-65.718-8.135-65.718s11.558-6.231 11.558-31.301c-4.086-62.932-25.177-35.773-29.558-63.372-10.491-66.487-34.306-54.649-34.306-90.934 0-60.476 24.956-88.698 103.102-122.199 5.697-2.441 11.407-4.928 17.097-7.47v-24.35h-126.081c-45.409 0-49.439-36.771-49.439-82.262 0-30.885 1.858-57.751 17.262-71.819zM925.913 126.455h-135.035v-135.035c0-16.945-13.721-18.449-30.697-18.449s-30.697 1.504-30.697 18.449v135.035h-135.035c-16.945 0-18.449 13.721-18.449 30.697s1.504 30.697 18.449 30.697h135.035v135.035c0 16.975 13.721 18.449 30.697 18.449s30.697-1.473 30.697-18.449v-135.035h135.035c16.975 0 18.449-13.721 18.449-30.697s-1.473-30.697-18.449-30.697z" />
<glyph unicode="&#xe909;" glyph-name="person-three-plus" d="M676.285 321.629c-34.89 11.75-79.329 31.689-41.65 48.020 57.14 24.74 75.442 45.61 75.442 90.245 0 26.797-17.468 18.054-25.111 67.156-3.176 20.382-18.625 0.325-21.559 46.801 0 18.515 8.424 23.116 8.424 23.116s-4.253 27.447-5.975 48.533c-1.346 17.242 6.002 49.643 33.347 70.106 32.109 23.333 46.132 55.057 106.421 52.214-27.561-14.698-21.505-29.342-12.542-38.545 51.192-14.481 63.653-61.688 61.904-83.803-1.696-21.086-5.948-48.533-5.948-48.533s8.451-4.602 8.451-23.116c-2.988-46.476-18.41-26.418-21.612-46.801-7.671-49.102-25.084-40.359-25.084-67.156 0-44.662 18.248-65.505 75.388-90.245 57.355-24.821 116.487-56.085 116.487-110.221v-19.987h-161.289l-0.731 105.707c0 45.491-36.771 49.439-82.262 49.439s-82.262-3.949-82.262-49.439l0.162-23.492zM529.345 138.239h-259.577v27.068c0 54.136 59.105 85.4 116.433 110.248 57.14 24.74 75.442 45.61 75.442 90.245 0 26.797-17.468 18.054-25.111 67.156-3.176 20.382-18.625 0.325-21.559 46.801 0 18.515 8.424 23.116 8.424 23.116s-4.253 27.447-5.975 48.533c-1.346 17.242 6.002 49.643 33.347 70.106 32.109 23.333 46.132 55.057 106.421 52.214-27.561-14.698-21.505-29.342-12.542-38.545 51.192-14.481 63.653-61.688 61.904-83.803-1.696-21.086-5.948-48.533-5.948-48.533s8.451-4.602 8.451-23.116c-2.988-46.476-18.41-26.418-21.612-46.801-7.671-49.102-25.084-40.359-25.084-67.156 0-44.662 18.248-65.505 75.388-90.245 13.146-5.689 26.386-11.717 38.985-18.281l0.123-17.833h-98.427c-45.409 0-49.439-36.771-49.439-82.262 0-6.511 0.083-12.843 0.357-18.914zM168.987 645.501c1.723-21.086 5.975-48.533 5.975-48.533s-8.424-4.602-8.424-23.116c2.934-46.476 18.383-26.418 21.559-46.801 7.644-49.102 25.111-40.359 25.111-67.156 0-44.635-18.302-65.505-75.442-90.245-57.328-24.849-116.433-56.112-116.433-110.248v-27.068h201.527c0 0 34.716 26.004 73.352 49.885 18.994 11.74 98.087 50.96 98.087 50.96s52.366 11.623-4.989 36.445c-57.14 24.74-75.388 45.583-75.388 90.245 0 26.797 17.414 18.054 25.084 67.156 3.203 20.382 18.625 0.325 21.612 46.801 0 18.515-8.451 23.116-8.451 23.116s4.253 27.447 5.948 48.533c1.749 22.115-10.712 69.321-61.904 83.803-8.963 9.203-15.018 23.847 12.542 38.545-60.289 2.842-74.311-28.882-106.421-52.214-27.345-20.463-34.693-52.864-33.347-70.106zM925.913 126.455h-135.035v-135.035c0-16.945-13.721-18.449-30.697-18.449s-30.697 1.504-30.697 18.449v135.035h-135.035c-16.945 0-18.449 13.721-18.449 30.697s1.504 30.697 18.449 30.697h135.035v135.035c0 16.975 13.721 18.449 30.697 18.449s30.697-1.473 30.697-18.449v-135.035h135.035c16.975 0 18.449-13.721 18.449-30.697s-1.473-30.697-18.449-30.697z" />
<glyph unicode="&#xe90a;" glyph-name="person-three-sit" d="M654.737 408.022h-285.48c-7.277 0-13.201 5.924-13.201 13.204v118.936c0 34.653 22.464 65.422 56.113 76.636l25.868 7.936c0.913 0.283 1.841 0.417 2.754 0.417 3.837 0 140.414 1.054 145.184-0.42l26.067-8.001c33.436-11.143 55.9-41.915 55.9-76.568v-118.936c0-7.28-5.924-13.204-13.204-13.204zM215.257 604.745c-51.109 0-92.69 41.579-92.69 92.69 0 51.109 41.582 92.693 92.69 92.693s92.693-41.582 92.693-92.693c0-51.109-41.582-92.69-92.693-92.69zM373.039 349.935v0c37.923 0 68.666-30.743 68.666-68.666v-196.196c0-12.583-10.199-22.781-22.781-22.781h-88.442c-12.583 0-22.781 10.199-22.781 22.781v131.996h-95.79c-44.516 0-80.604 36.088-80.604 80.604v198.087c0 46.365 37.588 83.952 83.952 83.952s83.952-37.588 83.952-83.955v-145.821h73.827zM808.743 604.745c-51.112 0-92.696 41.579-92.693 92.69 0 51.109 41.584 92.693 92.693 92.693s92.69-41.582 92.69-92.693c0-51.109-41.579-92.69-92.69-92.69zM808.741 579.711c46.368 0 83.955-37.588 83.955-83.95v-198.087c0-44.516-36.088-80.604-80.604-80.604h-95.79v-131.996c0-12.583-10.199-22.781-22.781-22.781h-88.442c-12.583 0-22.781 10.199-22.781 22.781v196.196c0 37.923 30.743 68.666 68.666 68.666h73.825v145.821c0 46.365 37.585 83.952 83.952 83.952zM512 652.122c-51.112 0-92.693 41.584-92.693 92.693s41.582 92.693 92.693 92.693c51.112 0 92.693-41.584 92.693-92.693s-41.582-92.693-92.693-92.693z" />
<glyph unicode="&#xe90b;" glyph-name="person-three-stand" d="M301.714 342.857v262.857c0 0 0.131 11.829 6.282 26.286h-111.425c0 0-52.571 0-52.571-52.571v-184c0-52.571 52.571-52.571 52.571-52.571v-262.857h157.714v210.286c0 0-52.571 0-52.571 52.571zM301.714 658.286c13.669 0 26.312 3.785 37.51 9.883 1.551 0.946 3.286 1.787 4.942 2.707 21.843 14.010 36.406 38.377 36.406 66.266 0 43.555-35.302 78.857-78.857 78.857s-78.857-35.302-78.857-78.857c0-43.555 35.302-78.857 78.857-78.857zM827.429 632h-111.399c6.125-14.457 6.256-26.286 6.256-26.286v-262.857c0-52.571-52.571-52.571-52.571-52.571v-210.286h157.714v262.857c0 0 52.571 0 52.571 52.571v184c0 0 0 52.571-52.571 52.571zM679.703 670.929c1.709-0.92 3.522-1.787 5.099-2.76 11.198-6.098 23.815-9.883 37.483-9.883 43.555 0 78.857 35.302 78.857 78.857s-35.302 78.857-78.857 78.857c-43.555 0-78.857-35.302-78.857-78.857 0-27.837 14.51-52.177 36.274-66.214zM512 658.286c43.552 0 78.857 35.306 78.857 78.857s-35.306 78.857-78.857 78.857c-43.552 0-78.857-35.306-78.857-78.857s35.306-78.857 78.857-78.857zM669.714 579.429c0 0 0 52.571-52.571 52.571h-210.286c0 0-52.571 0-52.571-52.571v-184c0-52.571 52.571-52.571 52.571-52.571v-262.857h210.286v262.857c0 0 52.571 0 52.571 52.571v184z" />
<glyph unicode="&#xe90c;" glyph-name="person-three" d="M168.987 645.501c1.723-21.086 5.975-48.533 5.975-48.533s-8.424-4.602-8.424-23.116c2.934-46.476 18.383-26.418 21.559-46.801 7.644-49.102 25.111-40.359 25.111-67.156 0-44.635-18.302-65.505-75.442-90.245-57.328-24.849-116.433-56.112-116.433-110.248v-27.068h201.527c0 0 34.716 26.004 73.352 49.885 18.994 11.74 98.087 50.96 98.087 50.96s52.366 11.623-4.989 36.445c-57.14 24.74-75.388 45.583-75.388 90.245 0 26.797 17.414 18.054 25.084 67.156 3.203 20.382 18.625 0.325 21.612 46.801 0 18.515-8.451 23.116-8.451 23.116s4.253 27.447 5.948 48.533c1.749 22.115-10.712 69.321-61.904 83.803-8.963 9.203-15.018 23.847 12.542 38.545-60.289 2.842-74.311-28.882-106.421-52.214-27.345-20.463-34.693-52.864-33.347-70.106zM665.857 645.501c1.723-21.086 5.975-48.533 5.975-48.533s-8.424-4.602-8.424-23.116c2.934-46.476 18.383-26.418 21.559-46.801 7.644-49.102 25.111-40.359 25.111-67.156 0-44.635-18.302-65.505-75.442-90.245-57.328-24.849 75.442-58.048 75.442-58.048l73.583-79.269h219.006v27.068c0 54.136-59.132 85.4-116.487 110.221-57.14 24.74-75.388 45.583-75.388 90.245 0 26.797 17.414 18.054 25.084 67.156 3.203 20.382 18.625 0.325 21.612 46.801 0 18.515-8.451 23.116-8.451 23.116s4.253 27.447 5.948 48.533c1.749 22.115-10.712 69.321-61.904 83.803-8.963 9.203-15.018 23.847 12.542 38.545-60.289 2.842-74.311-28.882-106.421-52.214-27.345-20.463-34.693-52.864-33.347-70.106zM417.422 551.406c1.723-21.086 5.975-48.533 5.975-48.533s-8.424-4.602-8.424-23.116c2.934-46.476 18.383-26.418 21.559-46.801 7.644-49.102 25.111-40.359 25.111-67.156 0-44.635-18.302-65.505-75.442-90.245-57.328-24.849-116.433-56.112-116.433-110.248v-27.068h484.464v27.068c0 54.136-59.132 85.4-116.487 110.221-57.14 24.74-75.388 45.583-75.388 90.245 0 26.797 17.414 18.054 25.084 67.156 3.203 20.382 18.625 0.325 21.612 46.801 0 18.515-8.451 23.116-8.451 23.116s4.253 27.447 5.948 48.533c1.749 22.115-10.712 69.321-61.904 83.803-8.963 9.203-15.018 23.847 12.542 38.545-60.289 2.842-74.311-28.882-106.421-52.214-27.345-20.463-34.693-52.864-33.347-70.106z" />
<glyph unicode="&#xe90d;" glyph-name="person-two" d="M745.234 97.624c0 86.704-84.426 130.828-166.652 166.266-81.956 35.284-108.129 65.009-108.129 128.705 0 38.179 25.015 25.749 35.979 95.776 4.632 29.030 26.714 0.463 30.96 66.746 0 26.405-12.083 32.968-12.083 32.968s6.138 39.106 8.531 69.216c2.471 31.539-15.364 98.825-88.827 119.478-12.816 13.164-21.502 34.048 18.028 54.972-86.472 4.015-106.585-41.229-152.639-74.505-39.183-29.184-49.76-75.393-47.869-99.984 2.509-30.111 8.609-69.216 8.609-69.216s-12.122-6.563-12.122-32.968c4.246-66.321 26.405-37.716 30.999-66.746 10.963-70.027 36.017-57.597 36.017-95.776 0-63.696-8.184-85.314-90.178-120.598-82.264-35.4-107.859-92.147-107.434-174.334 0.116-24.591-0.425-33.624-0.425-33.624h617.659c0 0-0.425 9.033-0.425 33.624v0zM843.249 320.136c-43.815 17.642-61.959 38.681-61.959 79.755 0 24.745 16.136 16.677 23.239 61.882 2.972 18.684 17.256 0.309 19.997 43.043 0 17.024-7.798 21.271-7.798 21.271s3.976 25.324 5.52 44.742c1.93 24.205-14.052 86.743-87.553 86.743-73.463 0-89.483-62.538-87.592-86.743 1.621-19.379 5.559-44.742 5.559-44.742s-7.798-4.208-7.798-21.271c2.741-42.734 17.024-24.359 19.997-43.043 7.103-45.244 23.239-37.175 23.239-61.882 0-41.074-16.908-60.299-69.834-83.075-2.664-1.12-4.632-2.625-7.064-3.938 63.31-27.486 163.139-74.93 186.765-171.671h102.107v89.483c0 38.604-10.539 70.799-56.825 89.445v0z" />
<glyph unicode="&#xe90e;" glyph-name="person" d="M418.207 739.723c-37.398-27.709-47.447-71.582-45.606-94.929 2.356-28.552 8.172-65.718 8.172-65.718s-11.521-6.231-11.521-31.301c4.012-62.932 25.14-35.773 29.484-63.372 10.454-66.487 34.343-54.649 34.343-90.934 0-60.44-25.030-88.698-103.175-122.199-78.403-33.647-159.235-75.98-159.235-149.285v-36.652h662.56v36.652c0 73.305-80.869 115.638-159.309 149.248-78.145 33.5-103.102 61.722-103.102 122.199 0 36.286 23.815 24.447 34.306 90.934 4.38 27.599 25.472 0.44 29.558 63.372 0 25.070-11.558 31.301-11.558 31.301s5.816 37.165 8.135 65.718c2.393 29.945-14.65 93.866-84.66 113.475-12.257 12.462-20.539 32.291 17.153 52.193-82.452 3.848-101.629-39.108-145.542-70.702v0z" />
<glyph unicode="&#xe90f;" glyph-name="phone" d="M580.129 381.845c-73.897-73.51-159.51-143.86-193.354-110.172-48.409 48.186-78.285 90.191-185.092 4.74-106.76-85.405-24.741-142.373 22.174-189.025 54.15-53.901 256.001-2.881 455.517 195.67 199.47 198.597 250.586 399.517 196.389 453.418-46.915 46.745-103.866 128.34-189.667 22.071-85.847-106.268-43.694-136.007 4.808-184.239 33.704-33.688-36.925-118.907-110.775-192.463v0z" />
<glyph unicode="&#xe910;" glyph-name="pin-slanted" d="M346.461 310.311l-96.052-99.705 0.61-38.837 38.752 0.736 96.003 99.642c-7.043 5.74-13.961 11.747-20.539 18.197-6.689 6.436-12.959 13.155-18.774 19.967v0 0 0zM666.991 289.347c0.689 0.922 1.223 1.984 1.891 2.983 2.658 3.745 5.106 7.531 7.279 11.588 0.361 0.731 0.616 1.483 0.998 2.137 2.297 4.507 4.369 8.985 6.223 13.651l0.143 0.737c14.819 39.698 11.782 87.785-7.487 134.437l50.651 52.584c43.777-14.446 84.792-10.691 109.078 14.565 42.103 43.647 18.85 134.453-51.809 202.86-70.722 68.455-162.107 88.513-204.126 44.923-24.363-25.277-26.686-66.458-10.681-109.853l-50.721-52.57c-47.161 17.654-95.215 19.091-134.331 2.8-0.224-0.029-0.484-0.052-0.651-0.165-4.568-1.953-9.086-4.207-13.385-6.65-0.692-0.375-1.483-0.695-2.070-1.091-4.013-2.28-7.742-4.978-11.367-7.698-0.866-0.706-1.992-1.252-2.829-2-4.546-3.524-8.859-7.347-12.805-11.534-63.126-65.421-43.699-186.772 43.23-270.979 86.999-84.221 208.698-99.354 271.719-33.913 3.974 4.145 7.744 8.548 11.050 13.186v0 0 0zM706.323 644.406c-27.195 26.302-36.184 61.195-19.979 78.042 16.156 16.783 51.329 9.036 78.453-17.253 27.265-26.316 36.1-61.252 19.979-78.042s-51.223-9.056-78.453 17.253v0 0 0z" />
<glyph unicode="&#xe911;" glyph-name="pin" d="M494.019 229.452l2.583-138.421 27.893-27.030 26.882 27.922-2.573 138.342c-9.039-0.922-18.179-1.566-27.391-1.655-9.281-0.179-18.465 0.138-27.394 0.843v0 0zM735.492 441.277c-0.165 1.14-0.538 2.268-0.772 3.447-0.768 4.528-1.714 8.935-3.047 13.341-0.262 0.772-0.613 1.484-0.805 2.217-1.563 4.811-3.264 9.443-5.252 14.053l-0.42 0.622c-17.592 38.55-53.742 70.405-100.355 89.767l-1.367 72.998c41.17 20.74 67.516 52.397 66.831 87.429-1.092 60.634-81.744 108.402-180.078 106.809-98.413-1.603-177.215-52.039-176.104-112.574 0.646-35.101 28.123-65.862 70.125-85.23l1.307-73.038c-45.831-20.864-80.826-53.828-96.967-93.006-0.138-0.179-0.305-0.378-0.344-0.577-1.849-4.611-3.45-9.4-4.763-14.167-0.224-0.755-0.557-1.54-0.692-2.235-1.225-4.449-1.954-8.995-2.595-13.481-0.113-1.111-0.523-2.294-0.586-3.414-0.723-5.706-1.069-11.459-0.899-17.21 1.622-90.896 101.168-162.967 222.179-161.043 121.071 1.964 217.826 77.318 216.115 168.154-0.12 5.741-0.568 11.52-1.511 17.138v0 0zM512.239 720.153c-37.828-0.631-68.857 17.686-69.311 41.057-0.443 23.292 29.906 42.684 67.675 43.275 37.888 0.671 68.838-17.785 69.311-41.057s-29.817-42.624-67.675-43.275v0 0z" />
<glyph unicode="&#xe912;" glyph-name="plane-top-right" d="M716.97 473.529l-184.811-115.644c-64.314-40.268-158.2-94.31-200.495-111.184-29.588-11.827-61.461 5.435-61.461 5.435s-98.107 68.347-123.748 83.286c-25.641 14.939-24.8 24.215 4.012 37.411 17.935 8.196 127.627-4.716 174.415-10.759 49.491 38.351 94.946 71.602 116.523 86.886-60.997 34.565-175.128 99.131-211.388 118.649-34.751 18.695-3.436 30.7-3.436 30.7 14.227 5.745 45.329 14.656 61.693 13.23 111.64-9.696 300.797-47.967 315.289-50.936 31.053 21.378 79.598 53.795 109.438 72.505 78.072 48.824 172.848 22.2 180.902 9.285 6.069-9.682 11.577-50.915-176.933-168.865v0 0z" />
<glyph unicode="&#xe913;" glyph-name="plane-bottom-left" d="M609.706 357.097c65.748 37.881 157.541 95.407 192.296 124.829 24.333 20.572 24.055 56.818 24.055 56.818s-14.288 118.71-15.441 148.363c-1.153 29.653-9.738 33.266-34.916 14.021-15.657-11.988-55.754-114.902-72.383-159.051-57.096-25.693-107.795-50.217-131.42-62.093-1.883 70.085-5.31 201.168-5.52 242.347-0.192 39.46-25.493 17.446-25.493 17.446-11.752-9.864-34.221-33.143-40.645-48.26-43.85-103.125-98.863-288.107-103.046-302.297-33.454-17.382-84.867-45.026-115.396-62.589-79.762-46.012-100.748-142.193-93.127-155.367 5.7-9.904 39.52-34.125 232.164 76.945l188.871 108.887z" />
<glyph unicode="&#xe914;" glyph-name="plane-paper" d="M213.149 745.223c14.357-5.050 722.908-254.756 736.89-259.681 11.853-4.174 14.482-14.399 0.417-19.992-16.736-6.719-158.43-63.48-158.43-63.48v0l-93.906-37.604c0 0-452.334 332.135-458.428 336.642-6.177 4.507-13.272-3.965-8.806-8.806 4.466-4.883 328.504-355.298 328.504-355.298v-0.083l18.865-20.993-25-13.439c0 0-194.072-104.507-207.928-111.936-12.145-6.511-27.88-1.127-31.385 13.94-4.132 17.78-118.739 511.724-121.285 522.743-3.297 14.315 6.177 23.038 20.492 17.988v0zM698.955 138.883c0-10.267-5.801-13.147-13.815-5.885-10.476 9.558-118.947 106.886-118.947 106.886l132.762 68.614v-169.615z" />
<glyph unicode="&#xe915;" glyph-name="plus" d="M874.667 448c0-33.426-2.901-60.444-36.327-60.444h-265.895v-265.895c0-33.365-27.019-36.327-60.444-36.327s-60.444 2.962-60.444 36.327v265.895h-265.895c-33.365 0-36.327 27.019-36.327 60.444s2.962 60.444 36.327 60.444h265.895v265.895c0 33.426 27.019 36.327 60.444 36.327s60.444-2.901 60.444-36.327v-265.895h265.895c33.426 0 36.327-27.019 36.327-60.444v0z" />
<glyph unicode="&#xe916;" glyph-name="present-box" d="M471.623 405.547h-246.633c-19.542 0-35.532-16.168-35.532-35.93v-269.688c0-19.762 15.99-35.93 35.532-35.93h250.781c8.359 0 8.359 9.081 8.359 9.081v320.256c-0.003 0-0.003 12.21-12.506 12.21zM803.279 405.547h-246.382c-15.007 0-12.76-15.804-12.76-15.804v-316.955c0 0-0.122-8.78 8.905-8.78h250.232c19.542 0 35.532 16.168 35.532 35.93v269.68c0.005 19.762-15.985 35.93-35.527 35.93zM484.127 617.742c0 0 0 12.175-11.898 12.175h-287.364c-19.542 0-35.532-16.17-35.532-35.93v-112.16c0-19.762 15.99-35.93 35.532-35.93h288.337c10.924 0 10.924 9.581 10.924 9.581v162.263zM843.401 629.917h-288.28c-10.979 0-10.979-10.579-10.979-10.579v-164.082c0 0 0-9.359 13.347-9.359h285.911c19.542 0 35.532 16.168 35.532 35.93v112.16c0 19.759-15.99 35.93-35.532 35.93zM363.274 656.501c-16.257 0-31.106 1.304-44.127 3.877-33.073 6.534-55.804 19.251-69.493 38.875-12.265 17.587-16.019 39.267-11.16 64.443 8.512 44.047 37.764 68.304 82.361 68.304 9.438 0 19.803-1.102 30.81-3.278 27.999-5.531 63.811-21.767 95.799-43.43 54.272-36.757 56.956-59.608 54.253-73.6-3.974-20.56-22.977-35.252-58.098-44.917-23.728-6.529-53.013-10.275-80.347-10.275zM320.859 774.411c-17.272 0-23.207-4.88-26.467-21.757-2.666-13.799 0.696-18.618 1.799-20.202 4.618-6.623 16.648-12.147 33.875-15.547 9.296-1.838 20.782-2.809 33.205-2.809 27.318 0 51.385 4.186 67.355 8.764 1.162 0.332 2.967 1.723 1.033 2.887-20.878 17.199-59.074 40.165-90.912 46.456-7.417 1.461-14.111 2.207-19.889 2.207zM665.815 656.501c0 0 0 0-0.005 0-27.334 0-56.617 3.746-80.345 10.275-35.123 9.662-54.124 24.356-58.098 44.914-2.7 13.992-0.021 36.843 54.256 73.6 31.983 21.662 67.795 37.898 95.799 43.43 11.007 2.175 21.372 3.278 30.803 3.278 44.608 0 73.857-24.259 82.361-68.307 4.864-25.173 1.113-46.854-11.155-64.44-13.689-19.626-36.417-32.341-69.498-38.875-13.016-2.568-27.864-3.874-44.119-3.874zM597.883 726.104c-1.851-1.086-0.955-2.801 0.005-3.081 15.962-4.641 40.282-8.929 67.922-8.929 12.428 0 23.909 0.971 33.208 2.809 17.225 3.403 29.26 8.924 33.875 15.547 1.108 1.584 4.473 6.403 1.799 20.202-3.257 16.877-9.195 21.757-26.469 21.757-5.775 0-12.464-0.743-19.886-2.209-31.841-6.288-69.576-28.893-90.453-46.095z" />
<glyph unicode="&#xe917;" glyph-name="questionnaire" d="M760.889 784v0c27.49 0 49.778-21.492 49.778-48v-624c0-26.508-22.288-48-49.778-48h-497.778c-27.49 0-49.778 21.492-49.778 48v624c0 26.508 22.288 48 49.778 48h124.444c0 26.511 18.57 48 41.484 48h165.922c22.913 0 41.484-21.489 41.484-48h124.444zM512 784c-27.49 0-49.778-21.489-49.778-48 0-26.509 22.288-48 49.778-48s49.778 21.491 49.778 48c0 26.511-22.288 48-49.778 48zM512 352h-99.556c-27.49 0-49.778-21.492-49.778-48s22.288-48 49.778-48h99.556c27.49 0 49.778 21.492 49.778 48s-22.288 48-49.778 48zM412.444 496c-27.49 0-49.778-21.492-49.778-48s22.288-48 49.778-48h199.111c27.49 0 49.778 21.492 49.778 48s-22.288 48-49.778 48h-199.111z" />
<glyph unicode="&#xe918;" glyph-name="search" d="M878.755 182.301l-183.691 183.691c27.707 45.449 43.65 98.918 43.65 156.033 0 166.095-143.929 309.975-310.024 309.975-166.095 0.049-300.691-134.596-300.691-300.691 0-166.046 143.929-309.975 309.975-309.975 55.268 0 106.938 15.020 151.415 41.025l184.663-184.76c18.082-18.034 47.393-18.034 65.427 0l45.838 45.838c18.034 18.034 11.472 40.831-6.562 58.865v0zM220.55 531.309c0 115.007 93.182 208.189 208.141 208.189 115.007 0 217.474-102.418 217.474-217.474 0-114.959-93.231-208.189-208.189-208.189-115.007 0.049-217.425 102.515-217.425 217.474v0z" />
<glyph unicode="&#xe919;" glyph-name="sms" d="M511.99 789.333c-199.968 0-362.657-150.059-362.657-334.508 0-85.734 34.696-166.435 97.987-228.664-24.601-64.545-47.394-89.908-57.19-91.026-9.618-1.078-17.070-8.947-17.646-18.693-0.556-9.726 5.942-18.433 15.4-20.61 0.775-0.18 19.534-4.453 47.076-4.453 40.518 0 98.205 9.007 148.997 50.406 40.995-14.279 84.017-21.508 128.053-21.508 199.968 0 362.657 150.059 362.657 334.508 0 184.489-162.729 334.548-362.677 334.548v0zM317.070 350.019c-21.66 0-43.062 5.652-53.753 11.623l8.724 35.608c11.545-5.931 29.271-11.883 47.553-11.883 19.693 0 30.105 8.208 30.105 20.65 0 11.883-9.002 18.673-31.795 26.861-31.516 11.024-52.064 28.558-52.064 56.277 0 32.512 27.006 57.416 71.756 57.416 21.382 0 37.14-4.533 48.407-9.606l-9.558-34.789c-7.591 3.675-21.104 9.047-39.684 9.047s-27.582-8.488-27.582-18.373c0-12.162 10.691-17.534 35.173-26.861 33.484-12.442 49.242-29.976 49.242-56.856 0-31.973-24.462-59.113-76.526-59.113v0zM585.773 352.855l-2.842 72.953c-0.815 22.906-1.669 50.646-1.669 78.325h-0.854c-5.902-24.324-13.771-51.464-21.104-73.811l-23.071-74.391h-33.484l-20.269 73.811c-6.2 22.347-12.658 49.487-17.169 74.371h-0.556c-1.133-25.742-1.967-55.119-3.378-78.904l-3.378-72.394h-39.684l12.102 190.6h57.131l18.58-63.626c5.902-22.048 11.824-45.813 16.036-68.18h0.835c5.345 22.048 11.824 47.231 18.004 68.439l20.269 63.347h55.998l10.393-190.6-41.889 0.060zM734.333 465.969c33.484-12.442 49.242-29.976 49.242-56.836 0-31.973-24.462-59.093-76.565-59.093-21.66 0-43.042 5.632-53.753 11.583l8.724 35.628c11.545-5.931 29.271-11.883 47.553-11.883 19.713 0 30.125 8.208 30.125 20.65 0 11.883-9.002 18.673-31.795 26.861-31.516 11.024-52.083 28.558-52.083 56.277 0 32.512 27.006 57.416 71.756 57.416 21.382 0 37.14-4.533 48.427-9.606l-9.558-34.789c-7.591 3.675-21.104 9.047-39.664 9.047-18.6 0-27.602-8.488-27.602-18.373 0.020-12.182 10.711-17.554 35.193-26.88v0z" />
<glyph unicode="&#xe91a;" glyph-name="template" d="M682.667 661.333h-170.667v-85.333h170.667v85.333zM682.667 533.333h-170.667v-42.667h170.667v42.667zM469.333 661.333h-128v-170.667h128v170.667zM682.667 277.333h-341.333v-42.667h341.333v42.667zM682.667 362.667h-341.333v-42.667h341.333v42.667zM682.667 448h-341.333v-42.667h341.333v42.667zM810.667 832h-597.333c-23.595 0-42.667-19.072-42.667-42.667v-682.667c0-23.552 19.072-42.667 42.667-42.667h597.333c23.595 0 42.667 19.115 42.667 42.667v682.667c0 23.552-19.072 42.667-42.667 42.667v0zM256 149.333v597.333h512v-597.333h-512z" />
<glyph unicode="&#xe91b;" glyph-name="trash" d="M251.311 558.861l42.278-418.867c2.342-17.702 87.821-75.917 211.584-75.994 123.84 0.077 209.318 58.291 211.622 75.994l42.317 418.867c-64.666-36.173-161.318-53.261-253.939-53.261-92.544 0-189.235 17.088-253.862 53.261v0zM626.825 774.016l-32.986 36.518c-12.749 18.163-26.573 21.466-53.491 21.466h-70.31c-26.88 0-40.742-3.302-53.453-21.466l-32.986-36.518c-98.688-17.242-170.266-62.976-170.266-96.73v-6.528c0-59.405 130.675-107.558 291.84-107.558 161.203 0 291.878 48.154 291.878 107.558v6.528c0 33.754-71.539 79.488-170.227 96.73v0zM584.661 665.344l-41.088 51.456h-76.8l-41.011-51.456h-65.28c0 0 71.501 85.286 81.062 96.845 7.296 8.832 14.746 12.211 24.422 12.211h78.451c9.715 0 17.165-3.379 24.461-12.211 9.523-11.558 81.062-96.845 81.062-96.845h-65.28z" />
<glyph unicode="&#xe91c;" glyph-name="tree-collapse" d="M689.404 138.667h-444.632v448h79.87c-2.705 12.021 112.865 62.645 115.57 74.667h-195.44c-40.832 0-74.105-33.6-74.105-74.667v-448c0-41.067 33.347-74.667 74.105-74.667h444.632c40.758 0 74.105 33.6 74.105 74.667v100.948c-11.931-2.725-62.174 29.37-74.105 32.095v-133.043zM874.667 810.667v-522.667l-481.684 261.333 481.684 261.333z" />
<glyph unicode="&#xe91d;" glyph-name="tree-expand" d="M689.404 138.667h-444.632v448h164.374l-46.374 74.667h-118c-40.832 0-74.105-33.6-74.105-74.667v-448c0-41.067 33.347-74.667 74.105-74.667h444.632c40.758 0 74.105 33.6 74.105 74.667v269.531l-74.105-136.487v-133.043zM372.491 790.175h522.667l-261.333-481.684-261.333 481.684z" />
<glyph unicode="&#xe91e;" glyph-name="triangle-down" d="M128 810.667h768l-384-725.333-384 725.333z" />
<glyph unicode="&#xe91f;" glyph-name="triangle-left" d="M874.667 832v-768l-725.333 384 725.333 384z" />
<glyph unicode="&#xe920;" glyph-name="triangle-right" d="M149.333 832v-768l725.333 384-725.333 384z" />
<glyph unicode="&#xe921;" glyph-name="uncheck-all" d="M459.725 138.667h-214.953v448h214.953v74.667h-214.953c-40.832 0-74.105-33.6-74.105-74.667v-448c0-41.067 33.347-74.667 74.105-74.667h214.953v74.667zM512 405.334v-320.002c0-11.632 9.551-21.332 21.332-21.332h320.002c11.632 0 21.332 9.551 21.332 21.332v320.002c0 11.632-9.551 21.332-21.332 21.332h-320.002c-11.632 0-21.332-9.551-21.332-21.332zM565.333 351.947c0 11.811 9.723 21.386 21.386 21.386h213.228c11.811 0 21.386-9.723 21.386-21.386v-213.228c0-11.811-9.723-21.386-21.386-21.386h-213.228c-11.811 0-21.386 9.723-21.386 21.386v213.228zM512 810.668v-320.002c0-11.632 9.551-21.332 21.332-21.332h320.002c11.632 0 21.332 9.551 21.332 21.332v320.002c0 11.632-9.551 21.332-21.332 21.332h-320.002c-11.632 0-21.332-9.551-21.332-21.332zM565.333 757.281c0 11.811 9.723 21.386 21.386 21.386h213.228c11.811 0 21.386-9.723 21.386-21.386v-213.228c0-11.811-9.723-21.386-21.386-21.386h-213.228c-11.811 0-21.386 9.723-21.386 21.386v213.228z" />
<glyph unicode="&#xe922;" glyph-name="upload" d="M717.285 548.901c-10.304 0-20.384-0.919-30.203-2.5-24.491 78.848-100.352 136.266-190.213 136.266-109.723 0-198.613-85.575-198.613-191.11 0-9.41 0.747-18.674 2.128-27.79-5.264 0.625-10.565 0.992-16.016 0.992-74.592 0-135.035-58.153-135.035-129.943s60.443-130.016 135.035-130.016h163.632v147.036h-93.333l168 183.795 168-183.795h-93.333v-147.036h119.952c98.672 0 178.715 77.047 178.715 172.032 0 95.059-80.043 172.069-178.715 172.069v0z" />
<glyph unicode="&#xe923;" glyph-name="vcard-two" d="M661.333 427.847v-92.54h292.201c16.249 0 29.383 13.164 29.383 29.383v352.594c0 16.219-13.134 29.383-29.383 29.383h-528.891c-16.249 0-29.383-13.134-29.383-29.383v-117.684h58.766v88.301h264.446v-288.040c-3.79 2.997-8.609 5.906-15.544 8.903-12.648 5.445-27.645 11.844-41.595 19.083zM642.557 592.362c-6.774 4.571-14.934 7.238-23.717 7.238h-89.082c2.605 9.285 8.236 19.689 18.5 27.332 19.451 14.074 27.972 33.203 64.525 31.469-16.719-8.844-13.046-6.582-7.581-12.106 26.315-7.401 35.744-36.994 37.356-53.933zM777.238 629.135h117.531v-29.383h-117.531v29.383zM924.152 511.604h-146.914v29.383h146.914v-29.383zM600.941 578.266h-528.891c-16.249 0-29.383-13.134-29.383-29.383v-352.594c0-16.219 13.134-29.383 29.383-29.383h528.891c16.249 0 29.383 13.164 29.383 29.383v352.594c0 16.219-13.134 29.383-29.383 29.383zM424.644 460.735h117.531v-29.383h-117.531v29.383zM365.878 231.461c-3.79 2.997-8.609 5.906-15.544 8.903-34.672 14.926-87.003 37.022-87.003 63.937 0 16.19 10.548 10.901 15.22 40.519 1.939 12.282 11.312 0.206 13.075 28.237 0 11.165-5.113 13.957-5.113 13.957s2.586 16.513 3.614 29.265c1.058 13.31-6.494 52.889-37.522 61.616-5.465 5.524-9.138 3.261 7.581 12.106-36.552 1.734-45.073-17.395-64.525-31.469-16.572-12.341-21.067-31.88-20.245-42.282 1.087-12.723 3.673-29.265 3.673-29.265s-5.142-2.762-5.142-13.927c1.792-28.031 11.165-15.955 13.075-28.237 4.642-29.618 15.25-24.329 15.25-40.519 0-26.915-52.331-49.011-87.003-63.937-5.965-2.586-10.255-5.083-13.839-7.64v286.777h264.446v-288.040zM571.558 343.204h-146.914v29.383h146.914v-29.383z" />
<glyph unicode="&#xe924;" glyph-name="vcard" d="M857.6 725.333h-691.2c-21.235 0-38.4-17.165-38.4-38.4v-460.8c0-21.197 17.165-38.4 38.4-38.4h691.2c21.235 0 38.4 17.203 38.4 38.4v460.8c0 21.197-17.165 38.4-38.4 38.4zM627.2 571.733h153.6v-38.4h-153.6v38.4zM550.4 272.098c-4.954 3.917-11.251 7.718-20.314 11.635-45.312 19.507-113.702 48.384-113.702 83.558 0 21.158 13.786 14.246 19.891 52.954 2.534 16.051 14.784 0.269 17.088 36.902 0 14.592-6.682 18.24-6.682 18.24s3.379 21.581 4.723 38.246c1.382 17.395-8.486 69.12-49.037 80.525-7.142 7.219-11.942 4.262 9.907 15.821-47.77 2.266-58.906-22.733-84.326-41.126-21.658-16.128-27.533-41.664-26.458-55.258 1.421-16.627 4.8-38.246 4.8-38.246s-6.72-3.61-6.72-18.202c2.342-36.634 14.592-20.851 17.088-36.902 6.067-38.707 19.93-31.795 19.93-52.954 0-35.174-68.39-64.051-113.702-83.558-7.795-3.379-13.402-6.643-18.086-9.984v374.784h345.6v-376.435zM819.2 418.133h-192v38.4h192v-38.4z" />
<glyph unicode="&#xe925;" glyph-name="car-cheap" d="M895.99 414.522c0 15.106-3.411 29.535-9.57 42.735-0.635 3.356-1.361 6.706-2.268 10.105l-66.711 165.328-0.451 1.487c-23.341 69.499-56.553 133.822-140.767 133.822h-321.984c-86.29 0-116.782-65.917-140.635-133.436l-69.78-165.731c-10.088-16.163-15.823-34.653-15.823-54.31v-51.445c0-7.954 0.94-15.734 2.728-23.228-1.738-4.528-2.728-9.407-2.728-14.55v-153.010c0-22.437 18.189-40.63 40.626-40.63h84.307c22.425 0 40.614 18.193 40.614 40.63v76.516h441.71v-76.516c0-22.437 18.193-40.63 40.632-40.63h79.479c22.446 0 40.632 18.193 40.632 40.63v153.027c0 5.125-1 10.026-2.724 14.538 1.781 7.506 2.724 15.278 2.724 23.23v51.437l-0.010 0.002zM263.114 617.965c26.563 74.945 47.925 97.823 91.125 97.823h321.965c42.883 0 66.761-25.517 91.025-97.5l48.681-98.653c-15.895 5.886-33.388 9.153-51.766 9.153h-504.298c-16.547 0-32.361-2.661-46.95-7.477l50.219 96.654zM304.933 343.539h-88.953c-16.016 0-29.005 13.001-29.005 29.015 0 16.019 12.989 29.012 29.005 29.012h88.953c16.022 0 29.012-12.993 29.012-29.012 0-16.014-12.998-29.015-29.012-29.015v0zM619.162 349.35h-206.907c-10.145 0-18.364 8.225-18.364 18.364 0 10.158 8.22 18.38 18.364 18.38h206.907c10.157 0 18.375-8.221 18.375-18.38 0-10.139-8.218-18.364-18.375-18.364v0zM805.767 343.539h-88.949c-16.029 0-29.012 13.001-29.012 29.015 0 16.019 12.993 29.012 29.012 29.012h88.949c16.029 0 29.022-12.993 29.022-29.012 0-16.014-12.993-29.015-29.022-29.015v0z" />
<glyph unicode="&#xe926;" glyph-name="web" d="M314.731 576.779c8.347 0 16.444-1.21 24.040-3.589 28.798 32.263 60.727 61.645 95.285 87.647-1.461 6.094-2.254 12.479-2.254 18.99 0 9.057 1.503 17.78 4.257 25.919-38.774 27.713-80.844 51.044-125.67 69.033-41.946-25.919-78.549-59.725-107.765-99.375 21.661-38.398 47.413-74.166 76.712-106.721 10.685 5.175 22.663 8.097 35.393 8.097v0zM233.010 495.1c0 11.478 2.421 22.413 6.636 32.263-26.211 28.882-49.959 59.934-70.744 93.031-26.086-51.837-40.902-110.394-40.902-172.415 0-71.746 19.783-138.9 54.049-196.372 12.271 69.033 35.518 134.351 67.614 194.16-10.434 13.69-16.653 30.844-16.653 49.333v0zM513.482 761.506c21.578 0 41.111-8.389 55.76-22.079 42.613 18.322 87.48 32.43 134.184 41.403-56.387 32.513-121.746 51.169-191.447 51.169-47.538 0-93.031-8.723-135.060-24.541 33.348-16.486 65.151-35.685 95.035-57.388 12.187 7.262 26.336 11.436 41.528 11.436v0zM635.604 376.734c5.092 10.601 12.312 19.992 21.244 27.379-24.124 74.166-62.313 142.072-111.521 200.462-9.766-4.174-20.535-6.427-31.887-6.427-17.738 0-34.057 5.718-47.455 15.234-29.633-22.496-57.054-47.705-81.971-75.252 7.847-12.479 12.396-27.212 12.396-43.031 0-8.473-1.294-16.695-3.756-24.458 71.662-47.83 154.176-80.719 242.95-93.908v0zM741.574 266.424c1.085-15.484 1.711-31.052 1.711-46.787 0-27.713-1.753-55.009-5.092-81.846 65.11 47.538 114.693 115.11 139.693 193.617-29.633-7.179-60.018-12.312-91.028-15.234-7.22-22.413-23.873-40.443-45.284-49.75v0zM616.488 321.809c-94.826 15.735-182.682 51.921-259.186 103.674-12.438-7.596-27.004-12.062-42.613-12.062-5.801 0-11.352 0.584-16.778 1.711-36.603-69.367-60.018-146.789-66.737-228.885 36.561-39.233 81.136-70.827 131.262-92.030 62.271 95.703 149.251 174.836 254.052 227.591v0zM769.746 732.625c-61.562-5.968-120.327-21.453-175.003-44.575 0.25-2.755 0.417-5.468 0.417-8.222 0-12.897-3.089-25.042-8.389-35.852 54.717-64.233 97.122-138.984 123.917-220.83 33.264-0.668 61.645-20.952 73.874-49.876 36.979 3.756 72.956 10.852 107.598 21.035 2.504 17.529 3.84 35.476 3.84 53.715-0.042 112.856-48.707 214.361-126.254 284.604v0zM657.599 278.194c-97.831-45.827-179.635-116.404-238.86-202.674 29.842-7.471 61.061-11.478 93.24-11.478 57.889 0 112.773 12.897 162.022 35.852 7.93 38.732 12.104 78.757 12.104 119.743 0 14.817-0.668 29.508-1.795 44.032-9.85 3.172-18.907 8.055-26.712 14.524v0z" />
<glyph unicode="&#xe927;" glyph-name="banquete" d="M155.961 255.394h712.078c9.374 0 18.318 3.982 24.642 10.943 6.317 6.961 9.476 16.304 8.606 25.701-16.193 176.331-148.216 318.779-318.785 350.060 0.376 3.002 0.909 5.944 0.909 9.059 0 33.67-27.119 95.509-71.413 95.509-44.292 0-71.411-61.839-71.411-95.509 0-3.114 0.533-6.055 0.909-9.059-170.569-31.283-302.592-173.731-318.785-350.062-0.869-9.397 2.241-18.74 8.575-25.701 6.331-6.984 15.284-10.941 24.673-10.941v0zM483.44 651.156c0 21.608 18.475 52.411 28.561 52.411 10.088 0 28.561-30.802 28.561-52.411 0-1.372-0.58-2.523-0.776-3.84-9.21 0.647-18.411 1.317-27.785 1.317s-18.575-0.67-27.785-1.317c-0.197 1.317-0.776 2.467-0.776 3.84zM902.966 224.869h-781.931c-19.719 0-35.701-16.074-35.701-35.909s15.982-35.917 35.701-35.917h781.931c19.72 0 35.701 16.084 35.701 35.917 0.002 19.835-15.981 35.909-35.701 35.909z" />
<glyph unicode="&#xe928;" glyph-name="bell" d="M780.003 398.867c-20.123 233.691-40.799 327.205-193.693 379.256-54.456 18.575-26.839 54.147-73.623 53.876-46.702-0.301-19.525-35.519-74.232-54.773-153.544-54.046-175.345-147.784-198.399-381.722-9.714-98.553-90.097-74.279-90.722-172.957-0.418-71.998 157.7-159.764 358.635-158.534 200.99 1.256 360.023 91.039 360.44 163.037 0.64 98.719-79.891 73.41-88.406 171.817v0 0zM508.383 124.848c-179.484-1.103-296.885 80.655-296.795 98.014 0.187 29.918 92.792 96.133 297.993 97.424s297.043-60.323 296.845-93.696c-0.128-19.744-118.504-100.614-298.043-101.742v0 0zM509.349 285.68c-93.816-0.591-164.018-14.759-212.74-32.777 17.534-33.323 64.474-56.958 119.913-56.608 70.579 0.375 128.119 39.45 128.396 87.233-0.011 0.604-0.107 1.1-0.118 1.704-11.44 0.381-23.229 0.566-35.451 0.447v0 0z" />
<glyph unicode="&#xe929;" glyph-name="board" d="M209.744 64h135.856l55.19 142.003-116.425 38.554-74.621-180.557zM604.436 206.003l55.19-142.003h135.856l-74.621 180.557-116.425-38.554zM816.64 755.2h-255.147l-19.627 76.8h-78.507l-19.627-76.8h-255.147c-21.707 0-39.253-17.165-39.253-38.4v-422.4c0-21.197 17.546-38.4 39.253-38.4h628.053c21.707 0 39.253 17.203 39.253 38.4v422.4c0 21.197-17.546 38.4-39.253 38.4v0z" />
<glyph unicode="&#xe92a;" glyph-name="booklet" d="M488 64l-360 96v576l360-96v-576zM896 736l-360-96v-576l360 96v576zM512 683.266l288 76.828v71.905l-288-144-288 144v-71.907l288-76.827z" />
<glyph unicode="&#xe92b;" glyph-name="calendar" d="M810.667 746.667h-42.667v-85.333h-128v85.333h-256v-85.333h-128v85.333h-42.667c-46.976 0-85.333-38.4-85.333-85.333v-512c0-46.933 38.357-85.333 85.333-85.333h597.333c46.933 0 85.333 38.4 85.333 85.333v512c0 46.933-38.4 85.333-85.333 85.333v0zM810.667 149.333h-597.333v341.333h597.333v-341.333zM362.667 832h-85.333v-153.6h85.333v153.6zM661.333 832v-153.6h85.333v153.6h-85.333z" />
<glyph unicode="&#xe92c;" glyph-name="cards" d="M872.862 547.648l-285.842 76.551-50.034 186.43c-4.185 15.571-20.927 24.622-37.362 20.288l-348.509-93.272c-16.435-4.372-26.342-20.633-22.156-36.204l124.029-462.182c4.185-15.571 20.889-24.66 37.285-20.212l138.735 37.087-18.892-70.491c-4.185-15.571 5.721-31.832 22.156-36.166l311.416-83.378c16.435-4.41 33.1 4.641 37.324 20.288l114.045 425.095c4.147 15.571-5.76 31.832-22.195 36.166v0zM190.704 692.772l300.664 80.386 111.28-414.893-300.664-80.386-111.28 414.893zM730.018 123.933l-261.651 71.45 20.582 76.781 149.794 40.155c16.435 4.334 26.418 20.595 22.195 36.166l-57.906 215.807 228.359-62.552-101.373-377.807z" />
<glyph unicode="&#xe92d;" glyph-name="certificate" d="M844.861 725.333h-665.72c-28.245 0-51.142-22.838-51.142-51.012v-439.957c0-28.174 22.896-51.012 51.142-51.012h334.563c-13.583 24.999-20.953 53.216-20.953 82.209 0 94.446 77.001 172.592 173.030 172.592 50.64 0 96.269-21.815 127.938-56.514 27.997-30.676 45.089-71.422 45.089-116.078 0-28.983-7.369-57.205-20.953-82.209h27.003c28.245 0 51.142 22.838 51.142 51.012v439.957c0.003 28.171-22.894 51.012-51.139 51.012v0zM362.341 268.147h-127c-17.651 0-31.963 14.276-31.963 31.883 0 17.966 14.772 31.883 31.963 31.883h127c17.651 0 31.963-14.276 31.963-31.883 0-17.4-14.179-31.883-31.963-31.883v0zM203.377 454.341c0 17.966 14.772 31.883 31.963 31.883h213.232c17.651 0 31.963-14.276 31.963-31.883s-14.312-31.883-31.963-31.883h-213.232c-17.196 0-31.963 13.919-31.963 31.883v0zM714.366 576.771h-479.025c-17.194 0-31.963 13.919-31.963 31.883 0 17.607 14.312 31.883 31.963 31.883h479.025c17.761 0 31.963-14.457 31.963-31.883 0-17.607-14.312-31.883-31.963-31.883zM738.51 184.459c22.318 19.928 36.372 48.87 36.372 81.099 0 60.103-48.845 108.827-109.103 108.827s-109.103-48.724-109.103-108.827c0-32.306 14.128-61.312 36.538-81.242l-58.102-117.109c-1.596-3.216-2.015-6.887-1.181-10.378l12.335-51.78c0.655-2.744 2.501-5.058 5.035-6.31 2.503-1.234 5.464-1.326 8.083-0.166l47.367 21.007c4.183 1.857 7.587 5.111 9.617 9.205l49.528 99.823 49.528-99.823c2.030-4.094 5.434-7.348 9.617-9.205l47.367-21.007c2.552-1.132 5.516-1.102 8.083 0.166 2.537 1.252 4.38 3.563 5.035 6.31l11.985 50.308c1.059 4.443 0.527 9.116-1.504 13.21l-57.498 115.892z" />
<glyph unicode="&#xe92e;" glyph-name="chat" d="M350.72 359.253v238.080h-145.92c-42.24 0-76.8-34.56-76.8-76.8v-230.4c0-42.24 34.56-76.8 76.8-76.8h38.4v-115.2l115.2 115.2h192c42.24 0 76.8 34.56 76.8 76.8v69.888c-2.458-0.538-5.069-0.806-7.68-0.806l-268.8 0.038zM819.2 789.333h-345.6c-42.24 0-76.8-34.56-76.8-76.8v-307.2h268.8l115.2-115.2v115.2h38.4c42.24 0 76.8 34.522 76.8 76.8v230.4c0 42.24-34.56 76.8-76.8 76.8v0z" />
<glyph unicode="&#xe92f;" glyph-name="check-all" d="M689.404 138.667h-444.632v448h191.242l-54.251 74.667h-136.991c-40.832 0-74.105-33.6-74.105-74.667v-448c0-41.067 33.347-74.667 74.105-74.667h444.632c40.758 0 74.105 33.6 74.105 74.667v129.119l-74.105-81.409v-47.71zM501.722 639.666c-41.278 41.278 9.992 90.897 50.444 50.444l69.84-69.84 152.34 152.34c12.707 12.707 34.635 12.344 47.844-0.865 14.447-14.447 15.223-36.787 2.516-49.495l-179.295-179.295c-13.863-13.863-35.047-11.931-49.495 2.516l-94.194 94.194zM501.722 362.333c-41.278 41.278 9.992 90.897 50.444 50.444l69.84-69.84 152.34 152.34c12.707 12.707 34.635 12.344 47.844-0.865 14.447-14.447 15.223-36.787 2.516-49.495l-179.295-179.295c-13.863-13.863-35.047-11.931-49.495 2.516l-94.194 94.194z" />
<glyph unicode="&#xe930;" glyph-name="check" d="M159.059 390.413c-87.49 87.49 28.872 200.352 114.612 114.612l148.027-148.027 346.124 346.124c28.872 28.872 76.991 29.747 104.988 1.75 30.622-30.622 30.622-79.616 1.75-108.488l-407.367-407.367c-31.496-31.496-77.866-28.872-108.488 1.75l-199.646 199.646z" />
<glyph unicode="&#xe931;" glyph-name="checklist" d="M631.544 382.299c-33.806 0-65.298 18.714-82.187 48.837-12.298 21.935-15.707 47.764-9.604 72.728l20.469 83.706c6.753 27.615 20.686 52.851 40.289 72.98l133.707 137.296c-3.244 19.389-19.654 34.154-39.461 34.154h-526.675c-22.137 0-40.083-18.428-40.083-41.159v-685.682c0-22.731 17.947-41.159 40.083-41.159h526.678c22.137 0 40.083 18.428 40.083 41.159v300.754l-80.215-20.681c-7.544-1.948-15.309-2.933-23.085-2.933v0zM496.218 315.987l-119.178-97.681c-7.349-6.020-16.188-8.989-24.996-8.989-10.309 0-20.571 4.067-28.352 12.057l-52.907 54.33c-15.654 16.074-15.654 42.133 0 58.207 15.651 16.071 41.032 16.077 56.686 0l27.567-28.306 91.168 74.723c17.308 14.178 42.523 11.269 56.333-6.492 13.813-17.77 10.983-43.667-6.32-57.848v0zM496.218 581.959l-119.178-97.679c-7.349-6.020-16.188-8.989-24.996-8.989-10.307 0-20.571 4.067-28.352 12.057l-52.907 54.327c-15.654 16.071-15.654 42.133 0 58.207 15.651 16.071 41.032 16.071 56.686 0l27.567-28.306 91.168 74.723c17.308 14.183 42.526 11.269 56.333-6.492 13.813-17.77 10.983-43.667-6.32-57.848zM867.661 806.753c-6.916 0-13.96-2.634-19.694-8.52l-190.767-195.887c-9.358-9.609-16.001-21.641-19.224-34.821l-20.469-83.706c-0.954-3.907-0.628-8.122 1.328-11.612 2.728-4.868 7.635-7.587 12.709-7.587 1.184 0 2.381 0.148 3.557 0.453l82.048 21.156c12.835 3.309 24.555 10.131 33.91 19.74l116.223 119.342c18.388 18.881 28.718 44.49 28.718 71.194v81.303c0 17.41-13.874 28.946-28.339 28.946z" />
<glyph unicode="&#xe932;" glyph-name="chevron-down" d="M770.668 616.975l-258.747-248.087-258.747 248.087c-35.29 31.847-75.545 29.529-104.214 0-28.867-29.463-27.013-13.043 0-40.719 26.881-27.676 310.854-298.075 310.854-298.075 14.367-14.765 33.237-22.18 52.107-22.18s37.739 7.415 52.239 22.18c0 0 283.84 270.4 310.854 298.075 27.080 27.676 28.867 11.256 0 40.719-28.867 29.529-69.057 31.847-104.346 0v0 0 0 0z" />
<glyph unicode="&#xe933;" glyph-name="chevron-left" d="M680.974 706.668l-248.087-258.747 248.087-258.747c31.847-35.29 29.529-75.545 0-104.214-29.463-28.867-13.043-27.013-40.719 0-27.676 26.881-298.075 310.854-298.075 310.854-14.765 14.367-22.18 33.237-22.18 52.107s7.415 37.739 22.18 52.239c0 0 270.4 283.84 298.075 310.854 27.676 27.080 11.256 28.867 40.719 0 29.529-28.867 31.847-69.057 0-104.346v0 0z" />
<glyph unicode="&#xe934;" glyph-name="chevron-right" d="M343.024 706.668l248.087-258.747-248.087-258.747c-31.847-35.29-29.529-75.545 0-104.214 29.463-28.867 13.043-27.013 40.719 0 27.676 26.881 298.075 310.854 298.075 310.854 14.765 14.367 22.18 33.237 22.18 52.107s-7.415 37.739-22.18 52.239c0 0-270.4 283.84-298.075 310.854-27.676 27.080-11.256 28.867-40.719 0-29.529-28.867-31.847-69.057 0-104.346v0z" />
<glyph unicode="&#xe935;" glyph-name="chevron-up" d="M770.668 279.025l-258.747 248.087-258.747-248.087c-35.29-31.847-75.545-29.529-104.214 0-28.867 29.463-27.013 13.043 0 40.719 26.881 27.676 310.854 298.075 310.854 298.075 14.367 14.765 33.237 22.18 52.107 22.18s37.739-7.415 52.239-22.18c0 0 283.84-270.4 310.854-298.075 27.080-27.676 28.867-11.256 0-40.719-28.867-29.529-69.057-31.847-104.346 0v0 0 0z" />
<glyph unicode="&#xe936;" glyph-name="circle-chevron-down" d="M623.018 526.821l-110.976-101.983-111.021 101.983c-8.772 8.683-22.948 8.683-31.809 0-8.727-8.683-8.727-22.815 0-31.454l126.881-124.355c8.816-8.683 23.037-8.683 31.764 0l126.881 124.355c8.816 8.639 8.772 22.771 0 31.454-8.727 8.683-22.904 8.683-31.72 0v0zM512 832c-212.080 0-384-171.92-384-384 0-212.12 171.92-384 384-384s384 171.88 384 384c0 212.080-171.92 384-384 384v0zM192 448c0 176.739 143.222 320 320 320 176.701 0 320-143.261 320-320s-143.299-320-320-320c-176.778 0-320 143.261-320 320z" />
<glyph unicode="&#xe937;" glyph-name="circle" d="M896 448c0-212.077-171.923-384-384-384s-384 171.923-384 384c0 212.077 171.923 384 384 384s384-171.923 384-384z" />
<glyph unicode="&#xe938;" glyph-name="clock" d="M512.020 832c-212.109 0-384.020-171.911-384.020-383.98 0-212.109 171.911-384.020 384.020-384.020 212.029 0 383.98 171.911 383.98 384.020 0 212.069-171.951 383.98-383.98 383.98v0zM511.98 144.036c-167.871 0-303.984 136.073-303.984 303.984 0 167.871 136.073 303.984 303.984 303.984 167.871 0 304.024-136.073 304.024-303.984 0-167.871-136.153-303.984-304.024-303.984v0zM552.018 474.819v213.189h-79.996v-249.787l-141.833-81.916 39.998-69.276 164.591 95.075c9.52 5.48 17.239 18.919 17.239 29.918v6.72l169.591 166.631c-7.92 10.839-16.439 21.159-25.879 30.638l-143.713-141.193z" />
<glyph unicode="&#xe939;" glyph-name="columns-reset" d="M613.053 319.576v159.239h-202.105v-177.926l165.975 149.224-0.983-130.537h37.113zM410.947 167.104v-103.104h81.539l0.979 28.991-82.518 74.112zM969.716 221.061v-189.059c0-34.755-28.233-63.020-63.020-63.020h-441.139v94.53h409.629v126.040h-346.609v-63.020l-126.040 110.285 126.040 110.285v-63.020h378.119c34.787 0 63.020-28.233 63.020-63.020zM168.421 810.667c-22.353 0-40.421-10.287-40.421-33.185v-215.704h202.105v248.889h-161.684zM128 478.815v-373.333c0-22.939 18.068-41.481 40.421-41.481h161.684v414.815h-202.105zM572.632 810.667h-161.684v-248.889h202.105v215.704c0 22.898-18.068 33.185-40.421 33.185v0 0zM896 478.815h-202.105v-158.815h202.105v158.815zM855.579 810.667h-161.684v-248.889h202.105v215.704c0 22.898-18.068 33.185-40.421 33.185v0 0z" />
<glyph unicode="&#xe93a;" glyph-name="columns" d="M613.053 105.481v373.333h-202.105v-414.815h161.684c22.353 0 40.421 18.542 40.421 41.481v0 0zM168.421 810.667c-22.353 0-40.421-10.287-40.421-33.185v-215.704h202.105v248.889h-161.684zM128 478.815v-373.333c0-22.939 18.068-41.481 40.421-41.481h161.684v414.815h-202.105zM572.632 810.667h-161.684v-248.889h202.105v215.704c0 22.898-18.068 33.185-40.421 33.185v0 0zM896 105.481v373.333h-202.105v-414.815h161.684c22.353 0 40.421 18.542 40.421 41.481v0 0zM855.579 810.667h-161.684v-248.889h202.105v215.704c0 22.898-18.068 33.185-40.421 33.185v0 0z" />
<glyph unicode="&#xe93b;" glyph-name="cross" d="M700.016 174.502l-188.016 188.016-188.016-188.016c-23.593-23.593-44.792-6.582-68.428 17.054s-40.646 44.835-17.054 68.428l188.016 188.016-188.016 188.016c-23.593 23.593-6.582 44.792 17.054 68.428s44.835 40.646 68.428 17.054l188.016-188.016 188.016 188.016c23.636 23.636 44.792 6.582 68.428-17.054s40.689-44.792 17.054-68.428l-188.016-188.016 188.016-188.016c23.636-23.636 6.582-44.792-17.054-68.428s-44.792-40.689-68.428-17.054v0z" />
<glyph unicode="&#xe93c;" glyph-name="dots" d="M512.042 533.333c-50.713 0-91.868-41.874-91.868-93.527s41.155-93.527 91.868-93.527c50.713 0 91.784 41.874 91.784 93.527s-41.071 93.527-91.784 93.527v0zM219.868 533.333c-50.713 0-91.868-41.874-91.868-93.527s41.155-93.527 91.868-93.527c50.713 0 91.784 41.917 91.784 93.527s-41.071 93.527-91.784 93.527v0zM804.216 533.333c-50.713 0-91.868-41.874-91.868-93.527s41.155-93.527 91.868-93.527c50.713 0 91.784 41.874 91.784 93.527s-41.071 93.527-91.784 93.527v0z" />
<glyph unicode="&#xe93d;" glyph-name="download" d="M670.436 547.989h-99.956v198.677h-133.274v-198.677h-99.956l166.593-165.564 166.593 165.564zM814.972 331.696c-6.997 7.417-53.676 57.053-67.004 70.001-8.829 8.576-21.457 13.841-34.718 13.841h-58.541l102.088-99.14h-118.081c-3.398 0-6.464-1.722-7.996-4.404l-27.188-62.020h-199.378l-27.188 62.020c-1.533 2.682-4.631 4.404-7.996 4.404h-118.081l102.055 99.14h-58.507c-13.227 0-25.855-5.265-34.718-13.841-13.327-12.98-60.007-62.616-67.004-70.001-16.293-17.252-25.255-30.994-20.991-47.981l18.692-101.789c4.265-17.020 23.023-30.994 41.715-30.994h543.492c18.692 0 37.45 13.974 41.715 30.994l18.692 101.789c4.198 16.987-4.731 30.729-21.057 47.981v0z" />
<glyph unicode="&#xe93e;" glyph-name="email" d="M696.593 362.442c0-32.013 9.204-44.781 33.275-44.781 53.648 0 87.808 67.647 87.808 180.151 0 171.957-126.628 254.277-284.721 254.277-162.637 0-310.563-107.931-310.563-311.901 0-194.824 129.401-300.925 328.125-300.925 67.474 0 112.764 7.317 182.048 30.184l14.866-61.245c-68.398-21.99-141.494-28.355-197.838-28.355-260.651 0-400.258 141.773-400.258 360.379 0 220.435 161.79 370.44 384.545 370.44 231.998 0 354.891-137.2 354.891-305.499 0-142.688-45.252-251.533-187.593-251.533-64.739 0-107.218 25.611-112.764 82.358-16.637-63.112-61.003-82.358-121.121-82.358-80.414 0-147.887 61.321-147.887 184.763 0 124.395 59.193 201.227 165.487 201.227 56.382 0 91.505-21.952 107.141-56.709l26.843 48.477h77.641v-268.95h0.077zM582.943 483.178c0 50.269-37.935 71.344-69.361 71.344-34.199 0-72.056-27.402-72.056-107.931 0-64.027 28.653-99.699 72.056-99.699 30.502 0 69.361 19.208 69.361 72.259v64.027z" />
<glyph unicode="&#xe93f;" glyph-name="envelope-back" d="M853.333 746.667h-682.667c-23.583 0-42.667-19.083-42.667-42.667v-512c0-23.542 19.083-42.667 42.667-42.667h682.667c23.583 0 42.667 19.125 42.667 42.667v512c0 23.544-19.083 42.667-42.667 42.667v0zM256 448h256v-42.667h-256v42.667zM597.333 277.333h-341.333v42.667h341.333v-42.667zM810.667 533.333h-128v128h128v-128z" />
<glyph unicode="&#xe940;" glyph-name="envelope-front" d="M152.491 682.652c20.821-13.042 309.248-193.835 320-200.555s24.661-9.906 38.656-9.906c13.995 0 27.904 3.186 38.656 9.906s299.179 187.513 320 200.555c20.864 13.092 40.576 64.014 2.304 64.014h-721.877c-38.272 0-18.56-50.923 2.261-64.014v0zM879.488 572.992c-23.68-14.386-315.179-191.595-329.685-200.455s-24.661-9.906-38.656-9.906c-13.995 0-24.149 1.045-38.656 9.906s-304.341 186.119-328.021 200.505c-16.64 10.155-16.469-1.742-16.469-10.901v-363.029c0-20.907 24.149-49.778 42.667-49.778h682.667c18.517 0 42.667 28.871 42.667 49.778v362.98c0 9.159 0.171 21.056-16.512 10.901v0z" />
<glyph unicode="&#xe941;" glyph-name="envelope-opened" d="M252.812 513.483v46.249c0 26.24 20.913 47.497 46.725 47.497h424.938c25.812 0 46.725-21.257 46.725-47.497v-46.227l59.876 60.864c2.511 2.554 3.826 6.087 3.598 9.697-0.212 3.607-1.947 6.939-4.759 9.159l-289.228 228.769c-16.872 13.342-40.5 13.342-57.375 0l-289.237-228.767c-2.814-2.222-4.548-5.553-4.761-9.159-0.226-3.61 1.086-7.145 3.6-9.697l59.898-60.888zM888.352 537.218c-4.635 1.944-9.974 0.865-13.523-2.745l-317.164-322.403c-12.113-12.313-28.549-19.237-45.675-19.237-17.123 0-33.562 6.924-45.661 19.237l-317.153 322.389c-3.551 3.61-8.888 4.69-13.523 2.732-4.626-1.944-7.651-6.543-7.651-11.64v-409.505c0-28.743 22.923-52.046 51.199-52.046h665.603c28.274 0 51.199 23.303 51.199 52.046v409.518c0 5.095-3.022 9.697-7.648 11.654zM653.875 534.575h-283.738c-14.135 0-25.6-11.651-25.6-26.023 0-14.371 11.465-26.021 25.6-26.021h283.738c14.139 0 25.6 11.652 25.6 26.021 0 14.372-11.462 26.023-25.6 26.023zM653.875 430.483h-283.738c-14.135 0-25.6-11.651-25.6-26.023s11.465-26.023 25.6-26.023h283.738c14.139 0 25.6 11.652 25.6 26.023s-11.462 26.023-25.6 26.023z" />
<glyph unicode="&#xe942;" glyph-name="exclamation" d="M580.886 328.081h-125.851l-26.305 503.919h178.461l-26.305-503.919zM426.667 151.683c0 28.884 7.737 50.719 23.21 65.504s37.996 22.179 67.567 22.179c28.54 0 50.633-7.565 66.278-22.694s23.468-36.792 23.468-64.989c0-27.165-7.909-48.569-23.726-64.215s-37.824-23.468-66.020-23.468c-28.884 0-51.234 7.651-67.052 22.952s-23.726 36.878-23.726 64.731v0z" />
<glyph unicode="&#xe943;" glyph-name="export" d="M242.021 263.646v369.017h271.358v82.004h-313.105c-23.086 0-41.747-18.41-41.747-41.002v-451.020c0-22.674 18.661-41.002 41.747-41.002h626.21c23.086 0 41.747 18.328 41.747 41.002v194.31h-83.495v-153.308h-542.715zM792.359 602.18v-105.649l201.114 154.74-201.114 148.73v-93.153c-244.191 0-244.191-237.063-244.191-237.063 69.128 111.51 111.659 132.396 244.191 132.396v0z" />
<glyph unicode="&#xe944;" glyph-name="faqs" d="M518.095 832c-191.892 0-347.429-150.16-347.429-335.418 0-126.734 72.765-236.886 180.107-293.96l-4.086-138.622 163.931 97.54c2.474-0.054 4.947-0.376 7.477-0.376 191.892 0 347.429 150.16 347.429 335.418s-155.537 335.418-347.429 335.418v0zM502.503 294.848c-31.018 0-52.142 22.057-52.142 51.467 0 30.027 21.652 51.52 52.142 51.52 31.685 0 52.198-21.494 52.754-51.52 0.028-29.329-21.040-51.467-52.754-51.467v0zM573.406 505.356c-21.652-23.211-30.463-45.241-29.851-70.787v-10.116h-77.963l-0.611 14.678c-1.751 28.819 8.199 58.309 34.632 88.819 18.706 21.547 33.992 39.633 33.992 58.873 0 19.776-13.536 32.79-42.859 33.891-19.261 0-42.775-6.735-57.923-16.959l-19.956 61.744c21.096 11.86 56.2 23.104 97.836 23.104 77.407 0 112.511-41.27 112.511-88.255 0.028-42.934-27.489-71.216-49.807-94.99v0z" />
<glyph unicode="&#xe945;" glyph-name="filter-cross" d="M170.667 703.956v-85.335c0-39.169 256.004-256.004 256.004-256.004v-256.004c-0.043-29.184 42.667-42.667 85.335-42.667s85.377 13.483 85.335 42.667v256.004c0 0 256.004 216.835 256.004 256.004v85.335c0 63.532-131.927 128.044-341.338 128.044s-341.338-64.513-341.338-128.044zM512.005 613.416c-153.218 0.043-261.892 56.875-261.892 78.124-0.085 21.12 108.716 78.124 261.892 78.038 153.175 0.085 261.977-56.918 261.892-77.996 0-21.291-108.674-78.124-261.892-78.166zM855.665 18.256l-95.484 95.484-95.484-95.484c-11.982-11.982-22.748-3.343-34.751 8.661s-20.642 22.77-8.661 34.751l95.484 95.484-95.484 95.484c-11.982 11.982-3.343 22.748 8.661 34.751s22.77 20.642 34.751 8.661l95.484-95.484 95.484 95.484c12.003 12.003 22.748 3.343 34.751-8.661s20.664-22.748 8.661-34.751l-95.484-95.484 95.484-95.484c12.003-12.003 3.343-22.748-8.661-34.751s-22.748-20.664-34.751-8.661z" />
<glyph unicode="&#xe946;" glyph-name="filter" d="M512.005 832c-209.411 0-341.338-64.513-341.338-128.044v-85.335c0-39.169 256.004-256.004 256.004-256.004v-256.004c-0.043-29.184 42.667-42.667 85.335-42.667s85.377 13.483 85.335 42.667v256.004c0 0 256.004 216.835 256.004 256.004v85.335c0 63.532-131.927 128.044-341.338 128.044v0zM512.005 613.416c-153.218 0.043-261.892 56.875-261.892 78.124-0.085 21.12 108.716 78.124 261.892 78.038 153.175 0.085 261.977-56.918 261.892-77.996 0-21.291-108.674-78.124-261.892-78.166v0z" />
<glyph unicode="&#xe947;" glyph-name="globe" d="M512 832c-212.076 0-384-171.922-384-384s171.924-384 384-384c212.076 0 384 171.922 384 384s-171.924 384-384 384v0zM363.37 742.049c-6.879-9.527-13.466-19.757-19.706-30.72-9.533-16.744-18.038-34.769-25.492-53.819-15.88 4.372-31.683 9.281-47.388 14.736 26.392 28.371 57.708 52.102 92.585 69.803v0zM230.987 619.926c22.524-8.454 45.245-15.864 68.118-22.239-9.413-37.285-15.25-77.158-17.221-118.325h-97.91c4.852 51.133 21.427 98.899 47.013 140.564v0zM230.987 276.074c-25.588 41.667-42.163 89.431-47.013 140.564h97.91c1.973-41.167 7.808-81.040 17.221-118.325-22.873-6.374-45.594-13.785-68.118-22.239v0zM270.785 223.752c15.705 5.455 31.508 10.368 47.386 14.736 7.456-19.050 15.961-37.075 25.494-53.819 6.239-10.961 12.828-21.193 19.706-30.72-34.877 17.703-66.194 41.433-92.585 69.803v0zM480.638 134.754c-40.159 15.061-75.733 58.275-100.529 117.945 33.341 6.154 66.909 9.962 100.529 11.422v-129.367zM480.638 326.983c-40.267-1.611-80.467-6.343-120.353-14.161-8.192 32.207-13.603 67.21-15.586 103.818h135.94v-89.657zM480.638 479.362h-135.94c1.983 36.608 7.394 71.611 15.586 103.818 39.885-7.82 80.087-12.55 120.353-14.161v-89.657zM480.638 631.881c-33.621 1.459-67.186 5.268-100.529 11.422 24.797 59.67 60.371 102.882 100.529 117.945v-129.367zM793.015 619.92c25.586-41.663 42.159-89.427 47.009-140.558h-97.91c-1.971 41.163-7.808 81.036-17.219 118.317 22.875 6.374 45.598 13.783 68.12 22.24v0zM753.221 672.24c-15.705-5.455-31.508-10.368-47.39-14.738-7.456 19.054-15.961 37.083-25.496 53.829-6.24 10.961-12.828 21.193-19.704 30.72 34.879-17.705 66.196-41.439 92.589-69.811v0zM543.362 761.246c40.159-15.061 75.735-58.279 100.531-117.953-33.341-6.152-66.909-9.958-100.531-11.416v129.369zM543.362 569.015c40.271 1.609 80.473 6.339 120.355 14.155 8.192-32.205 13.601-67.206 15.584-103.81h-135.94v89.655zM543.362 416.638h135.94c-1.983-36.604-7.392-71.605-15.584-103.81-39.883 7.818-80.085 12.546-120.355 14.157v89.653zM543.362 134.754v129.367c33.625-1.459 67.192-5.264 100.531-11.418-24.797-59.67-60.373-102.888-100.531-117.949v0zM660.632 153.951c6.879 9.527 13.466 19.757 19.704 30.72 9.535 16.746 18.040 34.775 25.496 53.827 15.88-4.372 31.683-9.283 47.39-14.738-26.394-28.373-57.71-52.106-92.589-69.809v0zM793.015 276.078c-22.522 8.46-45.245 15.868-68.118 22.244 9.411 37.281 15.246 77.152 17.219 118.315h97.91c-4.852-51.131-21.425-98.895-47.011-140.56v0z" />
<glyph unicode="&#xe948;" glyph-name="hamburger" d="M863.086 498.975h-702.171c-30.281 0-32.914-25.295-32.914-56.589s2.633-56.589 32.914-56.589h702.171c30.281 0 32.914 25.295 32.914 56.589s-2.633 56.589-32.914 56.589v0zM863.086 272.618h-702.171c-30.281 0-32.914-25.295-32.914-56.589s2.633-56.589 32.914-56.589h702.171c30.281 0 32.914 25.295 32.914 56.589s-2.633 56.589-32.914 56.589v0zM160.914 612.154h702.171c30.281 0 32.914 25.295 32.914 56.589s-2.633 56.589-32.914 56.589h-702.171c-30.281 0-32.914-25.295-32.914-56.589s2.633-56.589 32.914-56.589v0z" />
<glyph unicode="&#xe949;" glyph-name="hand" d="M828.336 150.356c-2.319-7.080-7.853-14.933-16.927-17.578-6.551-1.912-223.307-64.697-229.98-66.447-19.084-5.086-32.349-1.343-41.056 6.348-13.265 11.678-166.544 115.966-359.903 125.813-20.671 1.017-10.539 79.386 48.543 79.386 40.487 0 158.854-29.419 173.136-15.096 11.027 11.068 16.032 76.456-29.989 190.551v0l-92.57 229.369c-8.789 21.769 1.79 46.509 23.519 55.298 21.769 8.789 46.59-1.75 55.298-23.519 0 0 72.876-180.582 80.81-200.154 7.853-19.531 17.537-26.937 28.076-22.868 9.399 3.581 11.353 9.847 5.656 28.849l-83.252 245.279c-7.568 22.217 4.313 46.305 26.53 53.874 22.257 7.609 46.427-4.313 53.914-26.53l79.183-233.235c6.999-20.508 14.404-31.25 26.123-26.286 7.039 2.97 6.551 13.753 4.679 23.153l-55.582 222.615c-5.697 22.827 8.179 45.858 30.965 51.554 22.786 5.656 45.776-8.138 51.513-30.965l51.269-205.159c7.487-30.151 14.364-41.015 26.286-38.045 12.166 2.97 11.597 12.98 9.928 21.24-3.866 19.328-35.482 176.106-35.482 176.106-4.191 20.955 9.359 41.3 30.273 45.491 20.874 4.191 41.26-9.359 45.41-30.233l38.574-191.69 0.041-0.041c0 0 0 0 0-0.041l23.112-114.949c5.046-21.688 10.824-42.114 18.31-62.134 44.149-117.553 21.118-226.399 13.59-249.958v0z" />
<glyph unicode="&#xe94a;" glyph-name="import" d="M242.021 263.646v369.017h292.691v82.004h-334.438c-23.086 0-41.747-18.41-41.747-41.002v-451.020c0-22.674 18.661-41.002 41.747-41.002h626.21c23.086 0 41.747 18.328 41.747 41.002v194.31h-83.495v-153.308h-542.715zM982.366 638.222h-148.588v-148.588c0-18.645-15.099-20.3-33.778-20.3s-33.778 1.655-33.778 20.3v148.588h-148.588c-18.645 0-20.3 15.099-20.3 33.778s1.655 33.778 20.3 33.778h148.588v148.588c0 18.679 15.099 20.3 33.778 20.3s33.778-1.621 33.778-20.3v-148.588h148.588c18.679 0 20.3-15.099 20.3-33.778s-1.621-33.778-20.3-33.778z" />
<glyph unicode="&#xe94b;" glyph-name="language-ar" d="M797.221 176.385c-51.161-44.587-111.181-78.599-180.062-102.035-44.301-12.576-89.316-18.864-135.047-18.864-68.881 0-126.687 18.721-173.417 56.162s-70.096 98.176-70.096 182.206c0 34.869 5.43 68.666 16.291 101.392s30.296 65.808 58.306 99.249c13.433 14.862 23.508 25.938 30.225 33.226s12.647 12.504 17.792 15.648c-36.87 32.011-55.305 63.165-55.305 93.461-1.429 35.155 23.151 87.173 73.74 156.054 34.869 40.3 73.311 60.45 115.326 60.45 21.15 0 42.372-6.216 63.665-18.649s36.87-22.865 46.73-31.297c9.861-8.432 18.149-17.577 24.866-27.438s10.075-19.364 10.075-28.51c-0.286-1.429-1-2.144-2.144-2.144-39.442 14.291-72.882 21.436-100.32 21.436-10.861 0-24.794-2.501-41.8-7.503s-34.655-14.076-52.947-27.224c-18.292-13.147-27.438-26.438-27.438-39.871s12.719-27.724 38.156-42.872c25.438-15.148 40.728-23.722 45.873-25.723 10.861 1.429 50.874 10.861 120.042 28.296 22.294 4.287 38.942 7.503 49.946 9.646s25.937 5.502 44.801 10.075l-39.871-123.9h-3.001c-11.147 0-36.87-4.001-77.17-12.004-193.782-45.159-290.672-119.755-290.672-223.792 0-18.578 10.432-39.442 31.297-62.593 46.302-33.726 103.321-54.59 171.059-62.593 21.436-4.001 40.871-6.574 58.306-7.717s47.445-2.429 90.031-3.858c60.307 1.143 107.894 1.572 142.764 1.286v0z" />
<glyph unicode="&#xe94c;" glyph-name="language-en" d="M136.758 199.76v512.693h320.433v-70.322h-213.737v-143.069h175.286v-68.59h-175.286v-157.965h230.019v-72.747h-336.714zM562.847 199.76v380.363h102.539v-71.708c33.487 53.579 76.673 80.368 129.559 80.368 33.949 0 60.738-10.739 80.368-32.217s29.445-50.807 29.445-87.989v-268.817h-102.539v243.529c0 43.187-14.318 64.779-42.955 64.779-32.563 0-63.856-22.979-93.878-68.936v-239.372h-102.539z" />
<glyph unicode="&#xe94d;" glyph-name="pencil" d="M723.997 774.26c-85.784 61.309-146.838 59.975-170.028 56.285-6.522-1.023-12.003-4.713-15.852-9.914l-311.749-422.227c-12.546-16.983-19.793-37.168-20.925-58.108l-13.407-250.037c-0.951-18.006 17.302-31.032 34.422-24.586l238.058 89.363c20.065 7.558 37.502 20.673 50.094 37.746l311.613 422.093c4.031 5.468 5.662 12.137 4.529 18.806-3.805 23.385-22.057 80.115-106.755 140.579v0zM465.24 205.008l-92.533-35.078c-3.623-1.378-7.654-0.267-10.010 2.756-11.912 14.894-26.089 29.654-48.69 45.793-22.601 16.094-41.262 24.808-59.333 31.388-3.623 1.334-5.933 4.713-5.707 8.536l5.526 97.187 24.866 33.567c0 0 55.665 7.514 128.314-44.37 72.559-51.839 82.478-106.168 82.478-106.168l-24.911-33.611z" />
<glyph unicode="&#xe94e;" glyph-name="bed-double" d="M178.777 229.297h-72.085c-4.694 0-8.502-2.478-8.502-5.536v-26.225c0-3.057 3.805-5.536 8.502-5.536h72.085c4.694 0 8.502 2.478 8.502 5.536v26.225c0 3.058-3.805 5.536-8.502 5.536zM914.816 229.297h-72.085c-4.694 0-8.502-2.478-8.502-5.536v-26.225c0-3.057 3.805-5.536 8.502-5.536h72.085c4.694 0 8.502 2.478 8.502 5.536v26.225c0 3.058-3.805 5.536-8.502 5.536zM980.061 351.624c0 26.863-29.505 60.009-70.087 60.009h-796.989c-40.607 0-70.087-33.146-70.087-60.009l-0.231-32.54h937.625l-0.231 32.54zM43.040 290.076h937.549v-33.152h-937.549v33.152zM489.061 441.78c-3.133 23.483-12.717 49.797-12.717 49.797 7.186 27.022 7.69 50.16 7.427 60.714l3.172 3.028c4.138 3.951 4.29 10.508 0.34 14.646-3.952 4.14-10.511 4.289-14.648 0.34l-5.821-5.557c-59.599 4.342-95.341-4.506-95.341-4.506-48.577 9.908-79.388 5.779-87.456 4.339l-5.992 5.715c-4.138 3.951-10.697 3.789-14.648-0.351-3.951-4.138-3.799-10.719 0.34-14.67l5.025-4.843c-8.589-30.681 2.079-56.588 2.079-56.588-8.194-15.887-9.208-39.628-9.184-52.060h-141.617v137.756c0 0 27.513 124.465 254.894 124.459 74.401 0 202.54 0.002 273.503 0 227.365 0 254.817-124.463 254.817-124.463v-137.756h-140.67c-3.133 23.483-12.717 49.797-12.717 49.797 7.186 27.022 7.69 50.16 7.427 60.714l3.172 3.028c4.138 3.951 4.29 10.508 0.34 14.646-3.952 4.14-10.511 4.289-14.648 0.34l-5.821-5.557c-59.599 4.342-95.341-4.506-95.341-4.506-48.577 9.908-79.388 5.779-87.456 4.339l-5.992 5.715c-4.138 3.951-10.697 3.789-14.648-0.351-3.951-4.138-3.799-10.719 0.34-14.67l5.025-4.843c-8.589-30.681 2.079-56.588 2.079-56.588-8.194-15.887-9.208-39.628-9.184-52.060l-46.080-0.004z" />
<glyph unicode="&#xe94f;" glyph-name="bed" d="M266.646 211.053h-50.831c-3.31 0-5.995-2.683-5.995-5.995v-28.397c0-3.31 2.683-5.995 5.995-5.995h50.831c3.31 0 5.995 2.683 5.995 5.995v28.397c0 3.312-2.683 5.995-5.995 5.995zM785.67 211.053h-50.831c-3.31 0-5.995-2.683-5.995-5.995v-28.397c0-3.31 2.683-5.995 5.995-5.995h50.831c3.31 0 5.995 2.683 5.995 5.995v28.397c0 3.312-2.683 5.995-5.995 5.995zM385.818 559.045l-5.442 5.244c-4.481 4.278-4.646 11.404-0.368 15.885 4.278 4.483 11.38 4.658 15.861 0.38l6.489-6.188c8.737 1.56 42.099 6.031 94.7-4.698 0 0 38.702 9.58 103.238 4.879l6.303 6.017c4.48 4.276 11.582 4.115 15.861-0.368 4.278-4.481 4.113-11.582-0.368-15.859l-3.434-3.279c0.284-11.428-0.262-36.483-8.043-65.743 0 0 10.377-28.494 13.77-53.922h152.322v149.166c0 0-29.725 134.773-275.924 134.773-246.215 0.006-276.007-134.768-276.007-134.768v-149.166h153.347c-0.025 13.462 1.072 39.169 9.945 56.372 0 0-11.552 28.053-2.251 61.275zM831.678 343.512c0 29.088-20.806 64.98-49.423 64.98h-562.003c-28.635 0-49.422-35.892-49.422-64.98l-0.163-35.235h661.174l-0.163 35.235zM170.93 276.866h661.121v-35.898h-661.121v35.898z" />
<glyph unicode="&#xe950;" glyph-name="box" d="M881.556 800h-739.156c-14.608 0-26.4-11.748-26.4-26.4v-105.6h792v105.6c0 14.652-11.88 26.4-26.444 26.4v0zM160 157.6c0-33.88 27.676-61.6 61.556-61.6h580.8c33.88 0 61.6 27.764 61.6 61.6v466.4h-703.956v-466.4zM380 536h264v-88h-264v88z" />
<glyph unicode="&#xe951;" glyph-name="building-duo" d="M170.667 85.333h160.473v162.008h96.457v-162.008h160.473v725.333h-417.403v-725.333zM408.649 725.186h96.455v-95.23h-96.455v95.23zM408.649 572.137h96.455v-95.23h-96.455v95.23zM408.649 419.093h96.455v-95.23h-96.455v95.23zM253.63 725.186h96.455v-95.23h-96.455v95.23zM253.63 572.137h96.455v-95.23h-96.455v95.23zM253.63 419.093h96.455v-95.23h-96.455v95.23zM625.537 745.691v-512.866h61.969v-147.492h146.098v660.358h-208.067zM758.074 302.491h-87.817v86.698h87.815v-86.698h0.002zM758.074 441.831h-87.817v86.696h87.815v-86.696h0.002zM758.074 581.169h-87.817v86.696h87.815v-86.696h0.002z" />
<glyph unicode="&#xe952;" glyph-name="building-trio" d="M309.537 85.333h160.473v162.008h96.457v-162.008h160.473v725.333h-417.403v-725.333zM547.519 725.186h96.455v-95.23h-96.455v95.23zM547.519 572.137h96.455v-95.23h-96.455v95.23zM547.519 419.093h96.455v-95.23h-96.455v95.23zM392.5 725.186h96.455v-95.23h-96.455v95.23zM392.5 572.137h96.455v-95.23h-96.455v95.23zM392.5 419.093h96.455v-95.23h-96.455v95.23zM764.408 745.691v-512.866h61.969v-147.492h146.098v660.358h-208.067zM896.944 302.491h-87.817v86.698h87.815v-86.698h0.002zM896.944 441.831h-87.817v86.696h87.815v-86.696h0.002zM896.944 581.169h-87.817v86.696h87.815v-86.696h0.002zM64 85.333h146.098v147.492h61.969v512.866h-208.067v-660.358zM139.532 667.865h87.815v-86.696h-87.815v86.696zM139.532 528.527h87.815v-86.696h-87.815v86.696zM139.532 389.193h87.815v-86.696h-87.815v86.696z" />
<glyph unicode="&#xe953;" glyph-name="calendar-add" d="M810.667 393.103c13.653 1.183 28.604 1.458 44.285 1.458 14.451 0 28.282-0.233 41.049-1.196v267.969c0 46.933-38.4 85.333-85.333 85.333h-42.667v-85.333h-128v85.333h-256v-85.333h-128v85.333h-42.667c-46.976 0-85.333-38.4-85.333-85.333v-512c0-46.933 38.357-85.333 85.333-85.333h319.732c-3.415 14.599-4.078 31.695-4.078 49.984 0 12.476 0.308 24.397 1.589 35.349h-317.243v341.333h597.333v-97.564zM362.667 832h-85.333v-153.6h85.333v153.6zM661.333 832v-153.6h85.333v153.6h-85.333zM925.913 126.455h-135.035v-135.035c0-16.945-13.721-18.449-30.697-18.449s-30.697 1.504-30.697 18.449v135.035h-135.035c-16.945 0-18.449 13.721-18.449 30.697s1.504 30.697 18.449 30.697h135.035v135.035c0 16.975 13.721 18.449 30.697 18.449s30.697-1.473 30.697-18.449v-135.035h135.035c16.975 0 18.449-13.721 18.449-30.697s-1.473-30.697-18.449-30.697z" />
<glyph unicode="&#xe954;" glyph-name="car-normal" d="M882.6 548.858h-58.429c-30.765 80.688-69.708 145.894-73.045 152.003-3.442 6.312-7.846 8.947-13.4 9.906-64.37 11.080-155.763 13.227-225.733 14.567-69.97-1.339-161.349-3.487-225.719-14.567-5.554-0.959-9.958-3.594-13.4-9.906-3.337-6.109-42.28-71.315-73.045-152.003h-58.429c-7.407 0-13.4-5.823-13.4-13.004 0 0 6.988-42.087 7.511-43.484 1.623-4.287 5.482-7.505 10.207-8.331 0.34-0.057 15.127-1.365 31.589-2.807-4.502-16.249-8.114-32.111-10.403-47.045-8.951-58.28-1.427-163.235 3.233-215.622v-24.682c0-10.732 9.042-19.507 20.1-19.507h101.076c11.058 0 20.1 8.775 20.1 19.507v22.047h401.175v-22.047c0-10.732 9.042-19.507 20.1-19.507h101.076c11.058 0 20.1 8.775 20.1 19.507v24.684c4.658 52.387 12.182 157.343 3.233 215.622-2.29 14.936-5.901 30.796-10.403 47.045 16.462 1.442 31.249 2.749 31.589 2.807 4.723 0.826 8.584 4.044 10.207 8.331 0.524 1.396 7.511 43.484 7.511 43.484 0 7.18-5.993 13.003-13.4 13.003v0zM258.074 585.218c0.065 0.14 19.242 52.024 33.277 81.088 7.544 14.453 9.357 15.214 22.664 17.405 51.263 8.445 127.424 11.278 197.976 11.278s146.726-2.832 197.99-11.278c13.308-2.191 15.12-2.952 22.664-17.405 14.035-29.063 33.212-80.948 33.277-81.088 8.519-19.463 3.755-34.054-21.329-33.361s-440.106 0.692-465.192 0c-25.086-0.692-29.847 13.899-21.328 33.361v0zM310.732 356.535h-80.4c-3.683 0-6.7 2.928-6.7 6.502v52.018c0 3.575 3.017 6.502 6.7 6.502h53.6c3.683 0 7.819-2.718 9.186-6.039l21.827-52.944c1.368-3.321-0.529-6.039-4.213-6.039v0zM630.657 290.477h-237.85c-6.477 0-11.725 5.093-11.725 11.379s5.248 11.379 11.725 11.379h237.85c6.477 0 11.725-5.093 11.725-11.379s-5.248-11.379-11.725-11.379v0zM799.832 363.037c0-3.575-3.017-6.502-6.7-6.502h-80.4c-3.683 0-5.581 2.718-4.214 6.039l21.827 52.944c1.367 3.321 5.502 6.039 9.186 6.039h53.6c3.683 0 6.7-2.928 6.7-6.502v-52.018h0.002z" />
<glyph unicode="&#xe955;" glyph-name="car-royal" d="M880.73 587.119h-56.331c-12.772 0-20.881-5.258-24.918-15.974-1.91-5.061-7.509-22.231-12.886-38.933-14.465 75.336-40.735 134.568-41.986 137.343-5.112 11.428-18.022 21.159-30.679 23.141-2.937 0.46-73.409 11.304-201.931 11.304h-0.101c-128.448 0-198.878-10.844-201.805-11.304-12.669-1.982-25.579-11.713-30.691-23.134-1.25-2.78-27.52-62.014-41.998-137.355-5.376 16.708-10.976 33.878-12.874 38.939-4.031 10.716-12.165 15.974-24.931 15.974h-56.325c-10.055-0.001-15.276-5.213-15.276-14.226v-40.618c0-11.998 22.936-21.408 45.043-21.408h28.829c-18.31-5.031-28.548-10.588-28.548-16.435v-15.852c-18.87-13.403-20.143-27.733-20.143-27.733s0.132-109.85 0.337-118.356c0.174-7.404-0.432-16.476 6.325-22.865v-83.637c0-10.535 8.878-19.152 19.734-19.152h88.626c10.856 0 19.734 8.616 19.734 19.152v17.286l56.391-7.847c13.553-1.889 35.846-3.434 49.537-3.434h236.275c13.69 0 35.983 1.545 49.537 3.434l56.403 7.853v-17.292c0-10.535 8.878-19.152 19.734-19.152h88.608c10.856 0 19.734 8.616 19.734 19.152v83.631c6.764 6.395 6.152 15.467 6.331 22.871 0.205 8.506 0.349 118.356 0.349 118.356s-1.28 14.331-20.149 27.733v15.852c0 5.848-10.23 11.398-28.529 16.429h28.8c22.113 0 45.043 9.416 45.043 21.408v40.624c0 9.013-5.22 14.225-15.27 14.225v0zM292.090 349.739c-8.357 0-15.114 6.564-15.114 14.668 0 8.098 6.759 14.668 15.114 14.668 8.332 0 15.091-6.57 15.091-14.668 0-8.104-6.759-14.668-15.091-14.668v0zM327.822 431.441c0-3.515-2.95-6.389-6.571-6.389h-85.515c-3.611 0-6.577 2.875-6.577 6.389v25.529c0 3.51 2.968 6.383 6.577 6.383h85.514c3.622 0 6.571-2.875 6.571-6.383v-25.529h0.002zM415.211 352.223c0-3.416-2.853-6.186-6.374-6.186s-6.374 2.769-6.374 6.186v144.964c0 3.416 2.853 6.186 6.374 6.186s6.374-2.769 6.374-6.186v-144.964zM456.481 352.223c0-3.416-2.853-6.186-6.374-6.186s-6.374 2.769-6.374 6.186v144.964c0 3.416 2.853 6.186 6.374 6.186s6.374-2.769 6.374-6.186v-144.964zM497.739 352.223c0-3.416-2.853-6.186-6.374-6.186s-6.374 2.769-6.374 6.186v144.964c0 3.416 2.853 6.186 6.374 6.186s6.374-2.769 6.374-6.186v-144.964zM539.010 352.223c0-3.416-2.853-6.186-6.374-6.186s-6.374 2.769-6.374 6.186v144.964c0 3.416 2.853 6.186 6.374 6.186s6.374-2.769 6.374-6.186v-144.964zM580.274 352.223c0-3.416-2.853-6.186-6.374-6.186s-6.374 2.769-6.374 6.186v144.964c0 3.416 2.853 6.186 6.374 6.186s6.374-2.769 6.374-6.186v-144.964zM621.544 352.223c0-3.416-2.853-6.186-6.374-6.186s-6.374 2.769-6.374 6.186v144.964c0 3.416 2.853 6.186 6.374 6.186s6.374-2.769 6.374-6.186v-144.964zM669.566 530.633c-2.048 8.098-9.089 15.222-17.481 16.879l-121.852 20.369c-1.544 0.263-3.274 0.472-5.077 0.658v2.786c0 7.049-5.893 12.768-13.157 12.768s-13.157-5.719-13.157-12.768v-2.786c-1.802-0.187-3.533-0.397-5.077-0.658l-121.769-20.831c-8.423-1.44-15.486-8.383-17.559-16.417-31.773-2.018-60.548-4.63-85.346-7.713 13.715 73.523 40.177 133.257 40.466 133.904 0.727 1.527 4.085 4.058 5.779 4.367 0.697 0.104 71.073 10.897 196.565 10.897h0.097c125.554 0 195.978-10.791 196.668-10.897 1.699-0.309 5.058-2.839 5.785-4.361 0.294-0.654 26.745-60.247 40.46-133.91-24.8 3.083-53.569 5.695-85.348 7.713v0zM706.469 349.739c-8.357 0-15.108 6.564-15.108 14.668 0 8.098 6.753 14.668 15.108 14.668 8.351 0 15.108-6.57 15.108-14.668 0.002-8.104-6.757-14.668-15.108-14.668v0zM794.843 431.441c0-3.515-2.956-6.389-6.577-6.389h-85.515c-3.605 0-6.577 2.875-6.577 6.389v25.529c0 3.51 2.974 6.383 6.577 6.383h85.514c3.622 0 6.577-2.875 6.577-6.383v-25.529h0.002z" />
<glyph unicode="&#xe956;" glyph-name="car-side" d="M947.357 485.299c-16.839 5.63-133.97 31.228-133.97 31.228s-217.132 123.473-243.191 123.473c-26.059 0-204.81-0.079-204.81-0.079-43.674 0-80.172-33.28-122.431-71.811-19.916-18.155-41.899-38.135-66.147-55.908l-90.308-12.008c-13.050-4.161-22.502-16.371-22.502-30.798v-103.47c0-17.857 14.473-32.333 32.331-32.333h62.056c4.507-51.937 48.194-92.83 101.281-92.83 53.084 0 96.774 40.895 101.281 92.829h296.315c4.507-51.937 48.194-92.829 101.281-92.829s96.774 40.895 101.281 92.829h50.982c40.396 0 60.135 17.447 65.092 33.824 12.534 41.443 3.518 107.163-28.545 117.883v0zM259.669 289.771c-29.049 0-52.684 23.632-52.684 52.681s23.632 52.684 52.684 52.684c29.049 0 52.681-23.632 52.681-52.684 0.001-29.049-23.632-52.681-52.681-52.681v0zM455.227 516.524h-176.682c12.78 10.097 24.596 20.814 35.481 30.735 28.608 26.084 53.316 48.613 82.881 48.613 0 0 26.756 0.012 58.323 0.025v-79.373h-0.001zM498.251 595.914c21.866 0.007 41.358 0.013 51.137 0.013 24.35 0 123.113-57.354 160.179-79.405h-211.316v79.391zM758.545 289.771c-29.049 0-52.681 23.632-52.681 52.681s23.632 52.684 52.681 52.684c29.049 0 52.684-23.632 52.684-52.684 0-29.049-23.635-52.681-52.684-52.681v0z" />
<glyph unicode="&#xe957;" glyph-name="cog" d="M821.997 448.046c0 47.949 29.528 85.704 73.911 111.667-8.045 26.694-18.603 52.337-31.631 76.425-49.777-13.027-90.046 6.445-123.917 40.361-33.87 33.825-44.246 74.094-31.219 123.917-24.089 13.027-49.731 23.677-76.425 31.585-25.963-44.338-72.906-73.82-120.763-73.82-47.903 0-94.8 29.482-120.808 73.82-26.74-7.908-52.291-18.558-76.379-31.585 13.027-49.823 2.697-90.092-31.265-123.917-33.825-33.916-74.094-53.388-123.917-40.361-13.027-24.089-23.631-49.731-31.585-76.425 44.338-25.963 73.82-63.718 73.82-111.667 0-47.857-29.482-94.8-73.82-120.808 7.999-26.694 18.558-52.291 31.585-76.425 49.823 13.027 90.092 2.697 123.917-31.173 33.87-33.916 44.292-74.185 31.265-123.917 24.089-13.027 49.686-23.677 76.425-31.676 25.963 44.475 72.906 73.911 120.808 73.911 47.857 0 94.8-29.482 120.808-73.911 26.694 8.045 52.291 18.649 76.425 31.676-13.027 49.731-2.697 90.001 31.219 123.917 33.87 33.825 74.14 53.297 123.917 40.361 13.027 24.089 23.631 49.64 31.631 76.425-44.475 26.008-74.003 63.764-74.003 111.621v0zM511.954 281.117c-92.24 0-166.974 74.734-166.974 166.929 0 92.24 74.78 167.020 166.974 167.020 92.24 0 166.929-74.825 166.929-167.020 0-92.24-74.688-166.929-166.929-166.929v0z" />
<glyph unicode="&#xe958;" glyph-name="dashboard" d="M845.428 500.545c-19.141 45.164-44.893 84.060-77.249 116.712-32.355 32.646-70.917 58.625-115.684 77.939-44.768 19.314-91.677 28.973-140.759 28.973-49.079 0-95.996-9.661-140.756-28.973-44.76-19.321-83.318-45.292-115.675-77.939-32.364-32.652-58.109-71.548-77.256-116.712-19.143-45.164-28.716-92.494-28.716-142.009 0-71.271 19.009-136.979 57.029-197.102 5.12-7.89 12.401-11.832 21.841-11.832h567.065c9.435 0 16.717 3.943 21.836 11.832 38.023 60.393 57.032 126.097 57.032 197.102 0 49.515-9.568 96.845-28.709 142.009v0zM475.128 656.629c10.118 10.204 22.315 15.306 36.607 15.306s26.49-5.104 36.604-15.306c10.114-10.198 15.174-22.51 15.174-36.928s-5.060-26.726-15.174-36.928c-10.114-10.202-22.311-15.306-36.604-15.306-14.291 0-26.495 5.104-36.607 15.306-10.108 10.204-15.168 22.51-15.168 36.928s5.055 26.729 15.168 36.928v0zM289.483 321.606c-10.112-10.198-22.315-15.315-36.607-15.315-14.287 0-26.49 5.117-36.602 15.315-10.114 10.194-15.165 22.51-15.165 36.93s5.052 26.725 15.165 36.928 22.315 15.305 36.602 15.305c14.291 0 26.5-5.101 36.607-15.305s15.168-22.51 15.168-36.928c0-14.42-5.060-26.726-15.168-36.93v0zM367.143 504.421c-10.118-10.201-22.315-15.306-36.608-15.306s-26.495 5.111-36.608 15.306c-10.108 10.198-15.167 22.51-15.167 36.928s5.053 26.726 15.167 36.928c10.118 10.204 22.315 15.306 36.608 15.306 14.291 0 26.495-5.104 36.608-15.306 10.108-10.204 15.167-22.51 15.167-36.928 0-14.414-5.060-26.725-15.167-36.928v0zM596.266 500.951l-40.855-155.88c13.492-9.245 23.199-21.619 29.132-37.133 5.925-15.506 6.739-31.421 2.424-47.744-5.392-20.949-17.394-36.865-36.002-47.742-18.608-10.883-38.287-13.608-59.055-8.164-20.758 5.44-36.537 17.544-47.32 36.318-10.782 18.778-13.478 38.629-8.086 59.584 4.312 16.317 12.807 29.715 25.482 40.181 12.671 10.481 27.095 16.391 43.274 17.755l40.852 155.883c1.886 7.072 5.93 12.45 12.129 16.124 6.206 3.666 12.672 4.551 19.417 2.648 6.749-1.907 11.935-5.916 15.571-12.035 3.649-6.127 4.657-12.723 3.037-19.796v0zM656.333 504.421c-10.114 10.198-15.174 22.51-15.174 36.928s5.060 26.726 15.174 36.928c10.114 10.202 22.311 15.306 36.604 15.306 14.291 0 26.489-5.104 36.602-15.306s15.175-22.51 15.175-36.928c0-14.414-5.062-26.726-15.175-36.928-10.114-10.201-22.311-15.306-36.602-15.306-14.293 0-26.49 5.105-36.604 15.306v0zM807.196 321.606c-10.114-10.198-22.311-15.315-36.602-15.315-14.293 0-26.49 5.117-36.604 15.315-10.114 10.194-15.17 22.51-15.17 36.93s5.056 26.725 15.17 36.928 22.311 15.305 36.604 15.305c14.291 0 26.489-5.101 36.602-15.305s15.164-22.51 15.164-36.928c0-14.42-5.052-26.726-15.164-36.93v0z" />
<glyph unicode="&#xe959;" glyph-name="diagram" d="M518.94 776.546c-177.619 0-321.606-143.988-321.606-321.606s143.988-321.606 321.606-321.606c177.619 0 321.606 143.988 321.606 321.606h-321.606v321.606zM569.060 826.667v-321.606h321.606c0 177.619-143.988 321.606-321.606 321.606z" />
<glyph unicode="&#xe95a;" glyph-name="folder" d="M849.949 617.794h-39.773c-4.472 0-3.797 6.597-3.797 6.597v19.79c0 25.982-21.295 47.12-47.469 47.12h-324.765c-2.182 0-4.819 4.349-9.555 13.489-0.704 1.357-1.412 2.722-2.133 4.079-16.553 31.135-38.037 37.671-53.145 37.671h-84.494c-21.359 0-34.106-12.317-49.125-36.61-0.977-1.582-1.937-3.188-2.897-4.794-4.841-8.101-8.485-13.838-11.301-13.838h-24.692c-26.174 0-47.469-21.138-47.469-47.12v-391.728c0-23.025 16.727-42.232 38.747-46.309 2.663-0.928 5.584-1.45 8.721-1.45h579.095c15.664 0 30.726 12.525 33.47 27.834l64.072 357.432c2.746 15.311-7.825 27.836-23.49 27.836v0zM196.804 653.606h24.692c24.663 0 36.278 19.442 43.964 32.306 0.861 1.44 1.722 2.884 2.599 4.305 7.643 12.361 13.616 18.631 20.874 18.631h80.38c2.527 0 10.221 0 19.559-17.569 0.659-1.242 1.305-2.489 1.949-3.731 7.003-13.516 17.59-33.94 43.324-33.94h324.765c5.145 0 9.493-4.316 9.493-9.424v-18.847c0 0 0.592-7.541-3.797-7.541h-493.754c-15.664 0-30.726-12.525-33.47-27.834l-47.641-265.78c0 0-2.432-8.894-2.432 7.599v312.401c0 5.107 4.348 9.424 9.495 9.424v0z" />
<glyph unicode="&#xe95b;" glyph-name="h" d="M128 725.213c0 58.977 47.752 106.787 106.787 106.787h554.426c58.977 0 106.787-47.752 106.787-106.787v-554.426c0-58.977-47.752-106.787-106.787-106.787h-554.426c-58.977 0-106.787 47.752-106.787 106.787v554.426zM424.485 302.455v118.965h177.090v-118.965c0-19.013 17.383-33.68 36.939-33.68 19.013 0 33.68 14.667 33.68 33.68v308.549c0 19.556-14.667 33.68-33.68 33.68-19.556 0-36.939-14.124-36.939-33.68v-118.422h-177.090v118.422c0 19.556-14.124 33.68-33.136 33.68-24.445 0-38.569-14.124-38.569-33.68v-308.549c0-19.013 14.124-33.68 38.569-33.68 19.013 0 33.136 14.667 33.136 33.68z" />
<glyph unicode="&#xe95c;" glyph-name="hierarchy" d="M866.138 311.808h-46.938v92.936c0 18.661-15.275 33.784-34.125 33.784h-247.475v76.032h123.738c16.488 0 29.862 13.241 29.862 29.564v194.312c0 16.323-13.374 29.564-29.862 29.564h-298.675c-16.488 0-29.862-13.241-29.862-29.564v-194.312c0-16.323 13.374-29.564 29.862-29.564h123.738v-76.032h-247.475c-18.85 0-34.125-15.122-34.125-33.784v-92.949h-46.938c-16.488 0-29.862-13.241-29.862-29.564v-118.28c0-16.31 13.374-29.551 29.862-29.551h145.075c16.488 0 29.862 13.241 29.862 29.551v118.28c0 16.323-13.374 29.564-29.862 29.564h-46.938v76.045h230.4v-76.032h-46.938c-16.488 0-29.862-13.241-29.862-29.564v-118.293c0-16.31 13.374-29.551 29.862-29.551h145.075c16.488 0 29.862 13.241 29.862 29.551v118.293c0 16.323-13.374 29.564-29.862 29.564h-46.938v76.032h230.4v-76.032h-46.938c-16.488 0-29.862-13.241-29.862-29.564v-118.293c0-16.31 13.374-29.551 29.862-29.551h145.075c16.488 0 29.862 13.241 29.862 29.551v118.293c0 16.323-13.374 29.564-29.862 29.564v0z" />
<glyph unicode="&#xe95d;" glyph-name="history" d="M214.668 467.992c0 165.427 135.595 300.008 302.276 300.008 137.982 0 254.373-92.321 290.489-217.932-6.603-7.094-11.225-16.091-12.519-26.276l-3.303-26.178-5.601-29.651-30.89 0.032c0 130.356-106.862 236.404-238.177 236.404-131.35 0-238.207-106.050-238.207-236.404 0-88.422 49.255-165.53 121.874-206.083l-46.58-46.226c-83.684 53.423-139.363 146.445-139.363 252.307v0zM516.944 656.423c-17.708 0-32.034-14.245-32.034-31.798v-156.632c0-17.554 14.328-31.793 32.034-31.793h181.265c17.703 0 32.039 14.239 32.039 31.793 0 17.57-14.336 31.809-32.039 31.809h-149.224v124.823c0 17.554-14.359 31.798-32.041 31.798v0zM850.611 516.251c-0.219 8.317-6.865 15.059-15.213 15.485-8.004 0.456-15.653-5.617-16.709-13.902l-3.419-27.122-5.988-31.669c-2.475-10.984-5.026-22.335-9.78-34.678l-7.18-20.847-10.178-22.221c-3.638-9.11-9.154-18.284-15.006-28.003-2.968-4.917-5.967-9.884-8.778-14.966-2.947-3.952-5.832-7.965-8.695-12.011-7.546-10.547-14.651-20.514-24.193-30.44-8.288-10.268-18.235-19.447-28.726-29.154-3.094-2.864-6.167-5.704-9.208-8.589-3.407-2.572-6.782-5.175-10.116-7.757-11.159-8.63-21.663-16.761-34.182-23.895-9.655-6.68-20.69-12.085-31.341-17.28-4.452-2.178-8.872-4.336-13.155-6.554-5.433-1.939-10.721-4.025-15.936-6.099-9.761-3.869-18.968-7.508-28.728-9.646l-21.182-5.829-20.821-3.527c-10.597-2.26-19.918-2.779-28.947-3.318l-16.971-1.286-2.397 0.061v74.188c0 6.419-3.898 12.228-9.892 14.696-6.009 2.45-12.869 1.1-17.473-3.443l-137.832-136.797c-2.998-2.986-4.687-7.033-4.687-11.242 0-4.211 1.688-8.256 4.687-11.242l137.835-136.803c3.073-3.029 7.169-4.645 11.333-4.645 2.063 0 4.155 0.395 6.14 1.204 5.993 2.469 9.892 8.277 9.892 14.708v77.527l29.5 5.362c13.642 2.8 30.628 6.306 46.893 12.292l18.961 6.317 31.434 13.194c13.251 5.185 25.802 12.465 37.933 19.507 5.184 3.020 10.427 6.057 15.779 8.972 0.585 0.323 1.13 0.676 1.694 1.060 4.179 2.986 8.423 5.933 12.697 8.886 12.947 8.921 26.312 18.163 37.755 28.835 14.128 11.17 26.47 24.113 38.404 36.643l8.663 9.044c0.366 0.395 0.732 0.798 1.086 1.234l7.839 9.842c10.67 13.316 21.735 27.131 30.075 41.298 9.363 13.276 16.407 27.112 23.22 40.512 2.341 4.627 4.682 9.21 7.065 13.692 0.313 0.621 0.617 1.244 0.856 1.886 2.132 5.683 4.409 11.232 6.667 16.678 4.973 12.072 10.106 24.538 13 36.777l7.399 26.085 4.202 22.943c3.352 15.122 4.324 28.963 5.184 41.165l1.547 20.753-1.008 42.123z" />
<glyph unicode="&#xe95e;" glyph-name="hourglass" d="M728.747 656.282v90.163c0 30.298-96.307 85.555-215.040 85.555-118.771 0-215.040-55.258-215.040-85.555v-90.163c0-82.214 148.877-150.067 148.877-208.282 0-58.138-148.877-125.99-148.877-208.205v-90.24c0-30.259 96.269-85.555 215.040-85.555 118.733 0 215.040 55.296 215.040 85.594v90.24c0 82.214-148.877 150.067-148.877 208.205 0 58.176 148.877 126.029 148.877 208.243v0zM357.841 742.605c26.726 16.858 76.8 41.549 157.978 41.549 81.139 0 153.83-41.549 153.83-41.549 5.453-3.302 26.803-14.707 12.173-23.386-32.179-19.085-95.155-39.168-168.115-39.168s-133.786 22.118-166.042 41.242c-14.63 8.64 10.176 21.312 10.176 21.312v0zM532.945 448c0-45.811 38.246-75.302 78.758-114.662 29.606-28.723 70.118-68.083 70.118-93.504v-50.995c-37.248 18.547-148.685 36.672-148.685 96.154 0 30.067-38.899 30.067-38.899 0 0-59.482-111.437-77.606-148.685-96.154v50.995c0 25.421 40.55 64.819 70.118 93.504 40.512 39.36 78.758 68.851 78.758 114.662s-38.246 75.302-78.758 114.662c-29.606 28.8-70.118 68.16-70.118 93.619l-1.766 38.323c39.398-21.235 101.837-41.395 169.92-41.395 68.045 0 130.79 20.16 170.227 41.395l-2.112-38.323c0-25.421-40.55-64.819-70.118-93.619-40.474-39.36-78.758-68.851-78.758-114.662v0z" />
<glyph unicode="&#xe95f;" glyph-name="house-big" d="M885.333 377.339l-53.333 131.557c0 1.052-2.133 2.105-3.2 2.105h-174.933c-2.133 0-3.2 1.052-3.2 3.157v93.669c0 2.105 1.067 3.157 3.2 3.157h78.933c3.2 0 4.267 3.157 2.133 5.262l-220.8 214.701c-1.067 1.052-3.2 1.052-4.267 0l-220.8-215.753c-2.133-2.105-1.067-5.262 2.133-5.262h78.933c2.133 0 3.2-1.052 3.2-3.157v-93.669c0-2.105-1.067-3.157-3.2-3.157h-174.933c-1.067 0-2.133-1.052-3.2-2.105l-53.333-130.504c-1.067-2.105 1.067-4.21 3.2-4.21h48c2.133 0 3.2-1.052 3.2-3.157v-271.533c0-2.105 1.067-3.157 3.2-3.157h78.933c2.133 0 4.267 2.105 4.267 4.21v179.97c0 38.941 28.8 73.672 68.267 76.829 44.8 4.21 83.2-30.521 83.2-73.672v-183.127c0-2.105 2.133-4.21 4.267-4.21h392.533c2.133 0 3.2 1.052 3.2 3.157v271.533c0 2.105 1.067 3.157 3.2 3.157h48c2.133 0 4.267 2.105 3.2 4.21v0zM560 514.159h-94.933v93.669h94.933v-93.669zM740.267 201.579h-162.133c-2.133 0-4.267 2.105-4.267 4.21v111.56c0 2.105 2.133 4.21 4.267 4.21h161.067c2.133 0 4.267-2.105 4.267-4.21v-111.56c1.067-3.157-1.067-4.21-3.2-4.21v0z" />
<glyph unicode="&#xe960;" glyph-name="house-small" d="M932.578 398.079h-79.797v-286.353c0-21.238-9.259-47.726-47.726-47.726h-190.902v286.353h-190.902v-286.353h-190.902c-38.467 0-47.726 26.488-47.726 47.726v286.353h-79.797c-28.54 0-22.431 15.463-2.864 35.699l382.95 383.332c9.306 9.641 21.524 14.413 33.79 14.89 12.265-0.477 24.483-5.202 33.79-14.89l382.902-383.284c19.615-20.283 25.724-35.746-2.816-35.746v0z" />
<glyph unicode="&#xe961;" glyph-name="i-circle" d="M512.020 832c-212.109 0-384.020-171.911-384.020-383.98 0-212.109 171.911-384.020 384.020-384.020 212.029 0 383.98 171.911 383.98 384.020 0 212.069-171.951 383.98-383.98 383.98v0zM547.858 693.367c37.438 0 48.437-21.719 48.437-46.558 0-30.998-24.799-59.677-67.157-59.677-35.438 0-52.317 17.799-51.277 47.278 0 24.839 20.759 58.957 69.996 58.957v0zM451.943 218.032c-25.599 0-44.278 15.559-26.399 83.756l29.318 120.994c5.080 19.359 5.92 27.119 0 27.119-7.64 0-40.878-13.359-60.477-26.559l-12.759 20.919c62.197 51.957 133.713 82.436 164.311 82.436 25.599 0 29.838-30.238 17.079-76.796l-33.598-127.193c-5.96-22.479-3.4-30.238 2.56-30.238 7.68 0 32.798 9.28 57.517 28.759l14.479-19.439c-60.517-60.477-126.473-83.756-152.032-83.756v0z" />
<glyph unicode="&#xe962;" glyph-name="inspect" d="M823.916 488.181v254.135c0 37.681-31.331 68.351-69.919 68.351h-489.814c-38.545 0-69.919-30.67-69.919-68.351v-598.133c0-37.639 31.374-68.309 69.919-68.309h359.781c-85.812 33.829-146.373 116.003-146.373 212.005 0 126.199 104.651 228.503 233.744 228.503 40.815 0 79.187-10.227 112.581-28.202zM300.512 696.415h351.3v-40.533h-351.3v40.533zM300.512 599.474h351.3v-40.533h-351.3v40.533zM833.78 222.9c32.951 56.902 23.397 129.406-24.533 176.21-28.355 27.719-66.058 43.017-106.292 43.017s-77.988-15.298-106.343-43.017c-28.355-27.719-44.004-64.577-44.004-103.959 0-39.231 15.649-76.139 44.004-103.959 28.355-27.618 66.058-42.916 106.24-42.916 26.186 0 51.545 6.513 74.063 18.934l168.476-164.698 56.864 55.64-168.476 164.749zM766.224 233.351c-33.674-32.919-92.76-32.919-126.434 0-34.862 34.131-34.862 89.519 0 123.65 16.837 16.46 39.356 25.548 63.269 25.548s46.328-9.088 63.217-25.548c16.889-16.46 26.186-38.473 26.186-61.85s-9.348-45.289-26.237-61.8z" />
<glyph unicode="&#xe963;" glyph-name="lock" d="M759.467 533.333h-76.8v102.4c0 123.605-56.96 196.267-170.667 196.267-113.749 0-170.667-72.661-170.667-196.267v-102.4h-85.333c-23.595 0-42.667-27.563-42.667-51.157v-332.843c0-23.424 18.261-48.597 40.576-55.765l51.072-16.512c22.357-7.125 59.819-13.056 83.285-13.056h247.467c23.424 0 60.928 5.931 83.243 13.099l51.029 16.512c22.357 7.125 40.661 32.299 40.661 55.723v332.843c0 23.595-27.648 51.157-51.2 51.157v0zM597.333 533.333h-170.667v119.509c0 61.653 34.005 93.824 85.333 93.824s85.333-32.171 85.333-93.824v-119.509z" />
<glyph unicode="&#xe964;" glyph-name="megaphone" d="M895.086 741.752c-0.074 37.998-31.513 68.915-70.088 68.915 0 0 0 0-0.003 0-12.404 0-24.673-3.314-35.483-9.582l-224.309-130.085c-9.081-5.265-19.449-8.049-29.988-8.049h-304.789c-55.975 0-102.427-44.864-102.427-100.009v-121.633c0-55.146 46.452-100.009 102.427-100.009h1.029l37.678-189.71c8.066-40.731 44.498-69.774 86.621-69.774h0.971c26.465 0 51.292 11.020 68.118 31.143s23.57 46.083 18.503 71.674l-31.082 156.663h123.791c10.214 0 20.305-2.625 29.186-7.595l226.13-126.496c10.574-5.914 22.517-9.039 34.545-9.039 18.475 0 36.594 7.422 49.706 20.364 13.175 13.004 20.41 30.338 20.377 48.81l-0.914 474.412z" />
<glyph unicode="&#xe965;" glyph-name="envelope-plus" d="M152.016 682.652c20.821-13.042 309.248-193.835 320-200.555s24.661-9.906 38.656-9.906c13.995 0 27.904 3.186 38.656 9.906s299.179 187.513 320 200.555c20.864 13.092 40.576 64.014 2.304 64.014h-721.877c-38.272 0-18.56-50.923 2.261-64.014v0zM571.449 148.401h-400.782c-18.517 0-42.667 28.871-42.667 49.778v363.029c0 9.159-0.171 21.056 16.469 10.901 23.68-14.386 313.515-191.644 328.021-200.505s24.661-9.906 38.656-9.906c13.995 0 24.149 1.045 38.656 9.906s306.005 186.069 329.685 200.455c16.683 10.155 16.512-1.742 16.512-10.901v-131.799c-7.913 30.181-40.452 33.122-79.484 33.122-44.971 0-81.322-3.903-81.322-48.874l-1.307-123.567-121.625-1.801c-44.89 0-48.874-36.351-48.874-81.322 0-22.995 1.042-43.736 8.061-58.516zM989.913 169.122h-135.035v-135.035c0-16.945-13.721-18.449-30.697-18.449s-30.697 1.504-30.697 18.449v135.035h-135.035c-16.945 0-18.449 13.721-18.449 30.697s1.504 30.697 18.449 30.697h135.035v135.035c0 16.975 13.721 18.449 30.697 18.449s30.697-1.473 30.697-18.449v-135.035h135.035c16.975 0 18.449-13.721 18.449-30.697s-1.473-30.697-18.449-30.697z" />
<glyph unicode="&#xe966;" glyph-name="minus" d="M838.34 387.556h-652.679c-33.365 0-36.327 27.019-36.327 60.444s2.962 60.444 36.327 60.444h652.679c33.426 0 36.327-27.019 36.327-60.444s-2.901-60.444-36.327-60.444z" />
<glyph unicode="&#xe967;" glyph-name="money" d="M637.514 763.196c-9.748 5.503-22.174 6.061-32.32 1.301-5.435-2.69-10.455-6.122-15.705-9.131-150.136-89.732-300.262-179.472-450.398-269.203-3.093-1.796-5.895-4.229-7.645-7.388-5.577-9.104-2.324-22.393 7.194-27.472 82.571-46.529 165.151-93.041 247.731-139.552 8.396-4.831 18.763-5.839 28.016-3.15 4.958 1.398 9.262 4.318 13.654 6.901 43.491 26.029 87.016 51.997 130.498 78.035 10.057 5.795 19.788 12.174 30.013 17.66 0.239-17.031 0-34.063 0.124-51.094-0.106-2.176 0.574-5.202-2.015-6.176-54.768-32.762-109.57-65.498-164.347-98.252-8.219-4.919-18.444-6.432-27.68-3.804-6.239 1.708-11.586 5.477-17.216 8.502-78.435 44.096-156.737 88.449-235.252 132.385-4.136-2.123-8.281-4.725-10.588-8.918-4.507-7.335-3.65-17.695 2.369-23.95 3.703-3.928 8.864-5.892 13.389-8.662 79.752-44.901 159.477-89.829 239.22-134.739 7.963-4.495 17.667-5.689 26.513-3.406 7.671 1.929 13.955 6.972 20.769 10.732 48.307 28.896 96.623 57.774 144.948 86.644 3.199 1.92 6.301 4.034 9.757 5.477 0.256-17.438 0.009-34.877 0.124-52.315-0.071-1.637 0.141-3.893-1.697-4.663-54.971-32.86-109.942-65.737-164.921-98.588-10.437-6.299-24.056-6.644-34.723-0.717-71.462 40.212-142.897 80.486-214.351 120.716-10.305 5.654-20.353 11.811-30.835 17.138-2.899-1.442-5.798-3.035-8.016-5.441-6.664-6.848-7.247-18.633-1.246-26.082 3.005-4.026 7.724-6.052 11.957-8.485 78.223-44.052 156.437-88.121 234.651-132.182 3.606-1.973 7.106-4.185 10.897-5.804 6.646-2.84 14.167-3.256 21.211-1.929 7.565 1.46 13.796 6.22 20.344 9.962 149.597 89.378 299.131 178.835 448.719 268.239 3.933 2.415 8.431 4.441 11.047 8.441 4.392 6.069 4.887 14.643 1.361 21.225-2.28 4.574-6.593 7.697-11.162 9.706-32.894-19.465-65.629-39.195-98.47-58.756-22.271-13.183-44.321-26.755-66.734-39.681-0.539 8.679-0.203 17.385-0.027 26.065-0.336 6.193-0.3 12.395-0.035 18.58-0.071 3.787-0.38 7.573-0.027 11.351 4.074 2.849 8.493 5.158 12.726 7.759 50.702 30.338 101.44 60.632 152.151 90.961 3.067 1.858 6.39 3.486 8.82 6.22 4.534 4.963 6.151 12.289 4.401 18.748-1.476 5.892-5.974 10.838-11.507 13.209-1.529 0.841-3.014-0.345-4.33-1.009-44.993-26.95-90.048-53.802-135.041-80.734-9.147-5.264-17.985-11.068-27.282-16.049-0.159 8.246-0.239 16.501 0.159 24.738-0.212 10.511-0.627 21.066 0.080 31.559 54.405 32.568 108.855 65.065 163.277 97.624 3.102 1.867 6.372 3.548 9.129 5.928 6.973 6.353 8.193 17.801 2.978 25.614-3.473 5.609-9.978 7.874-15.351 11.157-79.761 44.928-159.548 89.82-239.308 134.757zM674.712 696.636c1.467 0.938 3.049 0.035 4.375-0.699 32.302-18.412 64.666-36.726 96.985-55.111 1.458-0.425 1.228-1.885 0.672-2.955-5.391-13.068-7.671-27.436-6.425-41.53 0.636-9.378 3.314-18.412 6.399-27.233-15.926-9.847-32.134-19.252-48.148-28.958-11.648-6.804-23.058-14.032-34.803-20.65-61.175 34.24-122.182 68.798-183.295 103.136-11.383 6.538-22.978 12.714-34.246 19.447 30.349 18.084 60.645 36.266 91.082 54.182 16.465-7.812 34.794-11.316 52.956-11.13 18.674-0.248 37.631 3.167 54.449 11.502zM341.679 562.021c2.050 1.301 4.189 2.442 6.372 3.486 10.287-5.193 20.132-11.245 30.243-16.775 59.946-33.753 119.884-67.524 179.848-101.26 2.616-1.38 5.223-2.814 7.539-4.68-36.871-22.145-73.795-44.229-110.746-66.25-15.236 6.821-31.895 10.192-48.546 10.493-17.455 0.31-35.192-2.238-51.338-9.086-2.174-0.814-4.684-2.672-6.902-0.938-33.265 18.996-66.619 37.85-99.858 56.907 1.343 5.45 3.482 10.679 4.33 16.253 3.57 18.288 0.424 37.443-7.477 54.209 32.055 19.42 64.401 38.345 96.535 57.642z" />
<glyph unicode="&#xe968;" glyph-name="notes" d="M773.41 770.837h-66.602v33.088c0 18.275-14.909 33.088-33.301 33.088-18.39 0-33.301-14.814-33.301-33.088v-33.088h-99.902v33.088c0 18.275-14.909 33.088-33.301 33.088-18.39 0-33.301-14.814-33.301-33.088v-33.088h-99.902v33.088c0 18.275-14.909 33.088-33.301 33.088-18.39 0-33.301-14.814-33.301-33.088v-33.088h-66.602c-36.782 0-66.602-29.627-66.602-66.177v-595.592c0-36.548 29.819-66.177 66.602-66.177h532.813c36.784 0 66.602 29.629 66.602 66.177v595.592c0 36.549-29.816 66.177-66.602 66.177zM773.41 109.069h-532.813v595.592h66.602v-33.088c0-18.273 14.91-33.088 33.301-33.088 18.392 0 33.301 14.815 33.301 33.088v33.088h99.902v-33.088c0-18.273 14.91-33.088 33.301-33.088 18.392 0 33.301 14.815 33.301 33.088v33.088h99.902v-33.088c0-18.273 14.91-33.088 33.301-33.088s33.301 14.815 33.301 33.088v33.088h66.602v-595.592zM307.198 307.599h199.805v-66.177h-199.805v66.177zM307.198 439.953h399.61v-66.177h-399.61v66.177zM307.198 572.307h399.61v-66.177h-399.61v66.177z" />
</font>
</defs>
</svg>
